<?xml version="1.0" encoding="utf-8"?>
<!-- Svg Vector Icons : http://www.onlinewebfonts.com/icon -->
<!DOCTYPE svg PUBLIC "-//W3C//DTD SVG 1.1//EN" "http://www.w3.org/Graphics/SVG/1.1/DTD/svg11.dtd">
<svg version="1.1" xmlns="http://www.w3.org/2000/svg" xmlns:xlink="http://www.w3.org/1999/xlink" x="0px" y="0px" viewBox="0 0 1000 1000" enable-background="new 0 0 1000 1000" xml:space="preserve">
<metadata> Svg Vector Icons : http://www.onlinewebfonts.com/icon </metadata>
<g><path d="M873.4,146.6c35.4,0,63.7,9,84.9,27c21.2,18,31.8,45.3,31.8,81.8v483c0,15.7-2.9,30.5-8.7,44.4c-5.8,13.9-13.8,26.1-23.9,36.6c-10.2,10.4-22,18.7-35.7,24.8c-13.6,6.1-28,9.1-43.1,9.1H119.7c-15.1,0-29.3-2.9-42.6-8.7s-24.9-13.5-34.8-23.1c-9.9-9.6-17.7-20.7-23.5-33.5c-5.8-12.8-8.7-26.4-8.7-40.9V253.7c0-31.3,9.6-57,28.7-77c19.1-20,46.1-30,80.9-30H873.4L873.4,146.6z M254.6,307.7c-11,0-21.5,2-31.3,6.1c-9.9,4.1-18.6,9.7-26.1,17c-7.5,7.3-13.5,16-17.8,26.1c-4.4,10.2-6.5,21-6.5,32.6s2.2,22.3,6.5,32.2c4.4,9.9,10.3,18.6,17.8,26.1c7.5,7.5,16.2,13.5,26.1,17.8c9.9,4.4,20.3,6.5,31.3,6.5c12.2,0,23.4-2.2,33.5-6.5c10.2-4.4,18.9-10.3,26.1-17.8c7.3-7.5,13.1-16.2,17.4-26.1c4.4-9.9,6.5-20.6,6.5-32.2c0-23.8-7.8-43.4-23.5-58.7C299,315.3,278.9,307.7,254.6,307.7L254.6,307.7z M391.2,608.8c0-11-2.2-21.6-6.5-31.8c-4.4-10.2-10.2-18.9-17.4-26.1c-7.3-7.3-16-13.1-26.1-17.4c-10.2-4.4-20.7-6.5-31.8-6.5H200.6c-22.6,0-41.8,8-57.4,23.9s-23.5,35.2-23.5,57.9v3.5v78.3h271.5v-78.3V608.8L391.2,608.8z M795,695c11.6,0,20.2-2.9,25.7-8.7c5.5-5.8,8.3-12.8,8.3-20.9c0-8.1-3.2-15.2-9.6-21.3c-6.4-6.1-15.4-9.1-27-9.1H533.1c-11.6,0-20.3,3-26.1,9.1c-5.8,6.1-8.7,13.2-8.7,21.3c0,8.1,2.9,15.1,8.7,20.9c5.8,5.8,14.2,8.7,25.2,8.7H795L795,695z M795.9,582.7c11.6,0,20-2.9,25.2-8.7c5.2-5.8,7.8-12.8,7.8-20.9c0-8.7-2.5-16-7.4-21.8c-4.9-5.8-13.2-8.7-24.8-8.7H530.5c-11.6,0-20,2.9-25.2,8.7c-5.2,5.8-7.8,13.1-7.8,21.8c0,8.1,2.5,15.1,7.4,20.9s13.2,8.7,24.8,8.7H795.9z M796.8,472.1c8.7,0,16.2-2.9,22.6-8.7s9.6-12.8,9.6-20.9c0-8.1-3.2-14.7-9.6-19.6s-13.9-7.4-22.6-7.4H620.1c-8.7,0-16.1,2.5-22.2,7.4c-6.1,4.9-9.1,11.5-9.1,19.6c0,8.1,3,15.1,9.1,20.9c6.1,5.8,13.5,8.7,22.2,8.7H796.8z"/></g>
</svg>