<?xml version="1.0" standalone="no"?>
<!DOCTYPE svg PUBLIC "-//W3C//DTD SVG 20010904//EN"
 "http://www.w3.org/TR/2001/REC-SVG-20010904/DTD/svg10.dtd">
<svg version="1.0" xmlns="http://www.w3.org/2000/svg"
 width="1559.000000pt" height="1559.000000pt" viewBox="0 0 1559.000000 1559.000000"
 preserveAspectRatio="xMidYMid meet">

<g transform="translate(0.000000,1559.000000) scale(0.100000,-0.100000)"
fill="#000000" stroke="none">
<path d="M9911 15570 c-678 -53 -1317 -311 -1876 -756 -76 -60 -505 -482
-1400 -1377 -709 -709 -1272 -1277 -1250 -1263 118 75 302 115 562 123 357 11
754 -50 1088 -167 167 -59 360 -161 405 -214 12 -15 95 65 784 752 424 422
805 795 847 829 264 209 552 341 859 395 124 21 395 16 517 -10 544 -117 952
-534 1058 -1083 9 -46 19 -143 22 -215 16 -356 -106 -727 -351 -1067 -43 -59
-447 -470 -1430 -1455 -754 -756 -1405 -1402 -1446 -1436 -112 -94 -230 -170
-375 -242 -466 -229 -976 -241 -1390 -31 -114 57 -208 123 -315 222 -153 141
-285 210 -461 241 -582 102 -1083 -437 -943 -1014 23 -96 103 -256 167 -332
113 -137 392 -363 604 -490 780 -468 1737 -567 2644 -274 298 96 558 221 829
399 282 186 292 195 1821 1724 1408 1408 1516 1521 1671 1736 595 831 791
1855 532 2786 -306 1103 -1218 1948 -2339 2168 -247 49 -593 70 -834 51z"/>
<path d="M5865 11424 c-730 -44 -1363 -281 -1945 -729 -169 -130 -3002 -2962
-3149 -3148 -389 -492 -628 -1037 -723 -1652 -29 -189 -36 -588 -14 -785 80
-700 381 -1332 865 -1818 478 -480 1049 -767 1741 -873 194 -30 635 -33 830
-6 653 91 1236 349 1750 773 133 110 2671 2646 2611 2609 -278 -171 -920 -172
-1507 -4 -211 61 -416 152 -515 231 -27 21 -52 38 -56 38 -5 0 -343 -336 -753
-746 -410 -410 -785 -780 -835 -822 -236 -199 -523 -341 -810 -403 -139 -30
-385 -37 -520 -16 -295 47 -539 172 -750 383 -202 203 -330 448 -382 736 -22
125 -22 372 0 493 51 279 166 535 354 787 60 81 357 384 1387 1416 721 722
1354 1352 1407 1399 254 225 530 369 844 439 136 31 402 43 538 25 266 -36
512 -143 697 -305 166 -146 207 -177 285 -216 116 -59 201 -81 336 -87 671
-32 1096 694 742 1267 -85 137 -321 350 -573 516 -394 260 -846 422 -1330 478
-130 15 -421 26 -525 20z"/>
<path d="M11810 7043 c-711 -53 -1385 -316 -1945 -760 -141 -111 -446 -416
-559 -558 -404 -509 -659 -1116 -741 -1765 -23 -180 -30 -506 -16 -696 84
-1082 646 -2049 1541 -2653 464 -314 934 -492 1525 -578 152 -22 706 -25 855
-5 164 23 321 52 445 83 1287 324 2281 1338 2578 2629 71 307 91 520 84 875
-6 259 -21 407 -62 610 -208 1018 -840 1880 -1753 2389 -419 234 -922 385
-1415 426 -117 9 -429 11 -537 3z m858 -2305 l2 -608 605 0 605 0 0 -605 0
-605 -605 0 -605 0 0 -605 0 -605 -605 0 -605 0 0 605 0 605 -610 0 -610 0 0
605 0 605 608 2 607 3 3 608 2 607 603 -2 602 -3 3 -607z"/>
</g>
</svg>
