<?xml version="1.0" encoding="utf-8"?>
<!-- Svg Vector Icons : http://www.onlinewebfonts.com/icon -->
<!DOCTYPE svg PUBLIC "-//W3C//DTD SVG 1.1//EN" "http://www.w3.org/Graphics/SVG/1.1/DTD/svg11.dtd">
<svg version="1.1" xmlns="http://www.w3.org/2000/svg" xmlns:xlink="http://www.w3.org/1999/xlink" x="0px" y="0px" viewBox="0 0 1000 1000" enable-background="new 0 0 1000 1000" xml:space="preserve">
<metadata> Svg Vector Icons : http://www.onlinewebfonts.com/icon </metadata>
<g><path d="M830.6,262.5l35.6-9.2V744l-35.6-9.6V262.5L830.6,262.5z M989.8,174.5c-5.9-27.4-30.2-49.6-69.1-49.6c-48.6,0-69.2,38.1-69.2,38.1l-709.8,234c-3.3-13.9-26.9-35.7-65.9-35.6c-42.9,0-64.1,20.1-65.8,45.8v201.2c0,27.1,28.8,49.3,67.2,49.1c41.5-0.1,62.7-23.3,64.6-48.8l91.1,27.6c-6.4,18.4-9.9,38-9.9,58.5c0,99.7,80.7,180.3,180.3,180.3c83.8,0,154.1-57.2,174.3-134.6l274,82.8c0,0,14.7,51.3,72.9,51.8c32.6,0.4,58.8-19.6,65.5-49.1V170.5L989.8,174.5L989.8,174.5z M922.5,830.6c-26.9,0-21.1-41.5-21.1-41.5L531.5,678c0.4,4.2,0.6,8.4,0.6,12.7c0,71.6-58,129.7-129.7,129.7c-71.6,0-129.7-58.1-129.7-129.7c0-30.9,10.8-59.3,28.9-81.6L104,549.9c-0.5,20.1-0.3,41.3-4.4,55.1c-3,10-8.2,16.1-17.7,15.2c-13.9-1.3-20.1-9.1-20.7-30.7V425.8c0-9.9-0.2-27.3,22.4-26.5c26.8,1,17.2,42.6,20.5,66.7l797.5-260.9c0,0-2.6-35.1,19.3-36.5c20.4-1.3,20.4,27.5,20.4,27.5v603.7C941.1,799.9,943.7,830.6,922.5,830.6L922.5,830.6z M405,597.4c-49.8,0-90.2,40.4-90.2,90.3c0,49.8,40.4,90.2,90.2,90.2c49.8,0,90.2-40.4,90.2-90.2C495.2,637.8,454.9,597.4,405,597.4z M405,725.6c-20.9,0-37.9-16.9-37.9-37.9c0-21,17-38,37.9-38c21,0,38,17,38,38C443,708.7,426,725.6,405,725.6z"/></g>
</svg>