<svg id="Capa_1" enable-background="new 0 0 512.027 512.027" height="512" viewBox="0 0 512.027 512.027" width="512" xmlns="http://www.w3.org/2000/svg"><g><path d="m276.601 295.535-15 25.981c-4.142 7.174-1.685 16.349 5.49 20.491l17.001 9.816c-1.849 7.802-3.078 15.835-3.078 24.203s1.229 16.401 3.078 24.203l-17.001 9.816c-7.174 4.142-9.631 13.315-5.49 20.49l15 25.981c4.142 7.174 13.315 9.633 20.49 5.491l17.003-9.816c11.73 11.082 26.058 19.202 41.92 23.959v20.876c0 8.284 6.716 15 15 15h30c8.284 0 15-6.716 15-15v-20.876c15.862-4.757 30.19-12.878 41.92-23.959l16.578 9.816c7.174 4.142 16.348 1.683 20.49-5.491l15-25.981c4.142-7.174 1.685-16.348-5.49-20.49l-16.576-9.816c1.849-7.802 3.078-15.835 3.078-24.203s-1.229-16.401-3.078-24.203l16.576-9.816c7.174-4.142 9.631-13.317 5.49-20.491l-15-25.981c-4.142-7.174-13.315-9.631-20.49-5.49l-16.578 9.816c-11.73-11.082-26.058-19.202-41.92-23.959v-19.876c0-8.286-6.716-15-15-15h-30c-8.284 0-15 6.714-15 15v19.876c-15.862 4.757-30.19 12.878-41.92 23.959l-17.003-9.816c-7.175-4.141-16.349-1.684-20.49 5.49zm109.412 35.492c24.814 0 45 20.186 45 45s-20.186 45-45 45-45-20.186-45-45 20.186-45 45-45z"/><path d="m61.013 181.027h30v75c0 8.291 6.709 15 15 15s15-6.709 15-15v-195h-60c-33.076 0-61 26.909-61 60s27.924 60 61 60z"/><path d="m349.646 90.573 120-30c8.057-2.007 12.92-10.151 10.928-18.179-2.021-8.042-10.342-12.993-18.193-10.913l-120 30c-8.057 2.007-12.92 10.151-10.928 18.179 2.029 8.148 10.332 12.925 18.193 10.913z"/><path d="m342.381 180.573 120 30c8.022 2.005 16.188-2.856 18.193-10.913 1.992-8.027-2.871-16.172-10.928-18.179l-120-30c-8.174-2.095-16.201 2.871-18.193 10.913-1.992 8.027 2.871 16.172 10.928 18.179z"/><path d="m294.773 238.2c3.926-2.827 6.24-7.354 6.24-12.173v-211c0-4.819-2.314-9.346-6.24-12.173-3.896-2.812-8.936-3.647-13.506-2.051l-130.254 44.418v151.611l130.254 43.418c4.384 1.489 9.482.854 13.506-2.05z"/></g></svg>