<?xml version="1.0" encoding="utf-8"?>
<!-- Svg Vector Icons : http://www.onlinewebfonts.com/icon -->
<!DOCTYPE svg PUBLIC "-//W3C//DTD SVG 1.1//EN" "http://www.w3.org/Graphics/SVG/1.1/DTD/svg11.dtd">
<svg version="1.1" xmlns="http://www.w3.org/2000/svg" xmlns:xlink="http://www.w3.org/1999/xlink" x="0px" y="0px" viewBox="0 0 1000 1000" enable-background="new 0 0 1000 1000" xml:space="preserve">
<metadata> Svg Vector Icons : http://www.onlinewebfonts.com/icon </metadata>
<g><path d="M10,990h490V10H10V990L10,990L10,990z M316.3,132.5h122.5V255H316.3V132.5L316.3,132.5L316.3,132.5z M316.3,377.5h122.5V500H316.3V377.5L316.3,377.5L316.3,377.5z M316.3,622.5h122.5V745H316.3V622.5L316.3,622.5L316.3,622.5z M71.2,132.5h122.5V255H71.2V132.5L71.2,132.5L71.2,132.5z M71.2,377.5h122.5V500H71.2V377.5L71.2,377.5L71.2,377.5z M71.2,622.5h122.5V745H71.2V622.5L71.2,622.5L71.2,622.5z M561.2,316.3H990v61.2H561.2V316.3L561.2,316.3z M561.2,990h122.5V745h183.7v245H990V438.7H561.2V990L561.2,990z"/></g>
</svg>