<?xml version="1.0" encoding="utf-8"?>
<!-- Svg Vector Icons : http://www.onlinewebfonts.com/icon -->
<!DOCTYPE svg PUBLIC "-//W3C//DTD SVG 1.1//EN" "http://www.w3.org/Graphics/SVG/1.1/DTD/svg11.dtd">
<svg version="1.1" xmlns="http://www.w3.org/2000/svg" xmlns:xlink="http://www.w3.org/1999/xlink" x="0px" y="0px" viewBox="0 0 1000 1000" enable-background="new 0 0 1000 1000" xml:space="preserve">
<metadata> Svg Vector Icons : http://www.onlinewebfonts.com/icon </metadata>
<g><path d="M806.4,765C747,798.4,632.9,821.4,500,821.4c-132.9,0-247.1-23-306.3-56.4c-75.7-31.3-132.2-73.4-160.9-122.2C19.4,665.5,10,689.2,10,714.2c0,138,219.4,250,490,250c270.6,0,490-112,490-250c0-25.1-9.3-48.7-22.7-71.4C938.6,691.6,882.1,733.7,806.4,765L806.4,765z M806.4,550.8C747,584.1,632.9,607.1,500,607.1c-132.9,0-247.1-22.9-306.3-56.4c-75.7-31.3-132.2-73.4-160.9-122.3C19.4,451.3,10,474.9,10,499.9c0,138.1,219.4,250,490,250c270.6,0,490-112,490-250c0-25-9.3-48.6-22.7-71.4C938.6,477.4,882.1,519.5,806.4,550.8L806.4,550.8z M153.5,462.4c88.7,45.2,211.2,73.3,346.5,73.3c135.3,0,257.8-28,346.4-73.2c44.5-22.6,80.2-49.5,105-79.4c24.8-29.9,38.6-62.8,38.6-97.3c0-13.6-3.1-26.8-7.8-39.7C944.6,126.9,744,35.8,500,35.8C256.1,35.8,55.4,126.9,17.8,246c-4.7,12.9-7.8,26.1-7.8,39.8c0,34.5,13.7,67.4,38.5,97.3C73.3,412.9,109.2,439.9,153.5,462.4L153.5,462.4z"/></g>
</svg>