<?xml version="1.0" encoding="utf-8"?>
<!-- Svg Vector Icons : http://www.onlinewebfonts.com/icon -->
<!DOCTYPE svg PUBLIC "-//W3C//DTD SVG 1.1//EN" "http://www.w3.org/Graphics/SVG/1.1/DTD/svg11.dtd">
<svg version="1.1" xmlns="http://www.w3.org/2000/svg" xmlns:xlink="http://www.w3.org/1999/xlink" x="0px" y="0px" viewBox="0 0 1000 1000" enable-background="new 0 0 1000 1000" xml:space="preserve">
<metadata> Svg Vector Icons : http://www.onlinewebfonts.com/icon </metadata>
<g><g transform="translate(0.000000,511.000000) scale(0.100000,-0.100000)"><path d="M4627.7,5004.5C2427.9,4847,612,3225.8,170.9,1020.4c-94.5-472.6-94.5-1354.8,0-1821.7c446.8-2214.1,2239.8-3815.2,4462.5-3984.2c1655.5-126,3265.2,598.6,4282,1930.5C9368-2262.1,9706-1483,9846.3-706.8c71.6,395.3,71.6,1231.6,0,1632.6c-108.8,607.2-343.7,1225.9-664.5,1758.6C8503,3804.4,7297.1,4649.4,5991,4921.5c-243.5,48.7-372.4,63-902.2,97.4C5011.5,5021.7,4802.4,5016,4627.7,5004.5z M5747.6,3566.7c899.4-200.5,1541-739,1876.1-1575.3c200.5-501.2,289.3-1194.4,234.9-1801.6c-100.2-1071.2-572.8-1727.1-1326.1-1827.4c-492.7-68.7-885.1,100.3-1048.3,444l-45.8,94.5L5280.7-1271c-94.5-100.3-229.1-206.2-332.2-260.6c-163.3-85.9-191.9-91.7-475.5-91.7c-280.7,0-312.2,5.7-452.5,83.1C3585.1-1296.8,3381.7-724,3467.6,23.6c126,1077,713.2,1887.5,1457.9,2005c220.5,37.2,564.3,0,776.2-85.9c177.6-68.7,458.3-243.5,478.3-295c5.7-20.1-31.5-532.7-88.8-1140c-60.1-644.5-94.5-1154.3-85.9-1228.8c43-280.7,166.1-401,421.1-401c383.8,0,638.7,280.7,799.1,876.5c85.9,309.3,94.5,1160,17.2,1538.1c-189,930.9-681.7,1495.1-1495.1,1712.8c-343.7,94.5-1054,94.5-1369.1,2.9c-968.1-277.8-1598.2-1085.6-1810.2-2311.4c-68.7-389.5-71.6-1140-5.7-1492.3c169-930.9,687.4-1558.2,1480.8-1787.3c320.8-94.5,950.9-111.7,1317.5-34.4c151.8,31.5,355.2,88.8,455.4,128.9c123.1,48.7,183.3,63,189,40.1c11.5-31.5,128.9-458.3,128.9-466.9c0,0-88.8-43-197.6-94.5c-687.4-315.1-1795.9-292.2-2543.5,54.4C2370.6-2482.6,1820.7-1379.9,1875.1,80.9c28.6,718.9,148.9,1237.4,421,1793c335.1,687.4,787.7,1160,1403.5,1460.8c223.4,108.8,607.2,232,845,269.2C4790.9,3641.1,5509.8,3618.2,5747.6,3566.7z"/><path d="M4919.8,1438.5C4536,1318.3,4269.6,799.8,4183.7,0.7c-71.6-661.6,108.8-1036.9,498.4-1036.9c249.2,0,435.4,146.1,598.6,472.6c65.9,128.9,80.2,232,148.9,959.5c100.3,1105.6,106,1019.7-68.8,1056.9C5174.7,1493,5091.7,1490.1,4919.8,1438.5z"/></g></g>
</svg>