<?xml version="1.0" standalone="no"?>
<!DOCTYPE svg PUBLIC "-//W3C//DTD SVG 20010904//EN"
 "http://www.w3.org/TR/2001/REC-SVG-20010904/DTD/svg10.dtd">
<svg version="1.0" xmlns="http://www.w3.org/2000/svg"
 width="150.000000pt" height="150.000000pt" viewBox="0 0 150.000000 150.000000"
 preserveAspectRatio="xMidYMid meet">

<g transform="translate(0.000000,150.000000) scale(0.100000,-0.100000)"
fill="#000000" stroke="none">
<path d="M90 1360 c-11 -11 -20 -30 -20 -42 0 -15 72 -94 240 -263 l240 -241
0 -259 c0 -187 4 -267 13 -285 7 -13 62 -60 122 -103 95 -68 114 -78 140 -73
55 11 55 11 55 380 l0 340 240 241 c168 169 240 248 240 263 0 12 -9 31 -20
42 -20 20 -33 20 -625 20 -592 0 -605 0 -625 -20z"/>
<path d="M925 704 c-19 -20 -35 -46 -35 -58 0 -14 33 -54 95 -116 l95 -94 -95
-97 c-63 -64 -95 -104 -95 -119 0 -29 61 -90 91 -90 16 0 53 29 119 95 l95 95
95 -95 c66 -67 102 -95 118 -95 31 0 92 61 92 90 0 15 -32 55 -95 119 l-95 97
95 94 c62 62 95 102 95 116 0 30 -64 94 -93 94 -15 0 -53 -30 -117 -95 l-95
-95 -95 95 c-64 64 -103 95 -118 95 -13 0 -38 -16 -57 -36z"/>
</g>
</svg>
