<?xml version="1.0" standalone="no"?>
<!DOCTYPE svg PUBLIC "-//W3C//DTD SVG 20010904//EN"
 "http://www.w3.org/TR/2001/REC-SVG-20010904/DTD/svg10.dtd">
<svg version="1.0" xmlns="http://www.w3.org/2000/svg"
 width="800.000000pt" height="600.000000pt" viewBox="0 0 800.000000 600.000000"
 preserveAspectRatio="xMidYMid meet">
<metadata>
Created by potrace 1.16, written by Peter Selinger 2001-2019
</metadata>
<g transform="translate(0.000000,600.000000) scale(0.100000,-0.100000)"
fill="#000000" stroke="none">
<path d="M1570 5765 l0 -135 -495 0 -495 0 0 -2645 0 -2645 3280 0 3280 0 0
2645 0 2645 -520 0 -520 0 0 125 0 125 -205 0 -205 0 0 -125 0 -125 -1855 0
-1855 0 0 135 0 135 -205 0 -205 0 0 -135z m330 -240 l0 -305 -135 0 -135 0 0
305 0 305 135 0 135 0 0 -305z m4130 -20 l0 -305 -135 0 -135 0 0 305 0 305
135 0 135 0 0 -305z m-4460 -200 l0 -175 205 0 205 0 0 175 0 175 1855 0 1855
0 0 -185 0 -185 205 0 205 0 0 185 0 185 430 0 430 0 0 -340 0 -340 -3120 0
-3120 0 0 340 0 340 425 0 425 0 0 -175z m5390 -2785 l0 -2010 -3120 0 -3120
0 0 2010 0 2010 3120 0 3120 0 0 -2010z"/>
<path d="M2632 3628 c-9 -9 -12 -186 -12 -737 0 -400 4 -732 8 -739 7 -9 49
-12 178 -10 l169 3 7 40 c4 22 7 163 7 313 l1 272 144 0 c79 0 151 3 160 6 14
5 16 31 16 179 l0 173 -61 7 c-33 4 -104 6 -157 4 l-97 -4 -6 37 c-3 20 -4 51
-1 67 l4 31 187 2 186 3 3 183 2 182 -363 0 c-269 0 -366 -3 -375 -12z"/>
<path d="M3457 3378 c-9 -336 -9 -1038 0 -1145 l6 -83 178 0 179 0 2 188 3
187 38 -100 c36 -94 46 -118 96 -238 l20 -48 188 3 c215 4 203 -3 163 98 -12
30 -28 73 -35 95 -8 22 -37 96 -65 165 -28 69 -60 149 -71 178 l-19 54 25 32
c13 17 39 63 57 101 l33 70 0 185 c0 183 -1 186 -30 254 -37 86 -117 174 -193
216 -68 37 -168 49 -413 50 l-156 0 -6 -262z m126 163 c6 -25 72 -45 100 -30
10 6 23 7 27 2 14 -15 -9 -54 -40 -64 -24 -9 -30 -17 -30 -40 0 -26 3 -29 35
-29 19 0 35 -4 35 -10 0 -5 11 -12 25 -16 17 -4 25 -13 26 -28 0 -11 2 -32 4
-46 2 -14 -1 -44 -7 -67 -9 -37 -12 -41 -29 -30 -12 8 -16 19 -13 33 8 30 -7
36 -42 18 -37 -20 -105 -11 -130 17 -13 15 -19 39 -20 92 -1 40 -5 88 -9 108
-4 23 -3 39 4 43 6 4 11 20 11 37 0 24 4 29 24 29 15 0 26 -7 29 -19z m293
-292 c17 -18 19 -35 17 -131 -2 -117 -14 -148 -55 -148 -17 0 -18 11 -18 150
0 139 1 150 18 150 11 0 27 -9 38 -21z"/>
<path d="M4452 3632 c-10 -7 -12 -162 -10 -743 l3 -734 55 -8 c30 -4 110 -4
178 -1 l122 6 0 744 0 744 -167 0 c-93 0 -174 -4 -181 -8z"/>
</g>
</svg>
