<?xml version="1.0" encoding="utf-8"?>
<!-- Svg Vector Icons : http://www.onlinewebfonts.com/icon -->
<!DOCTYPE svg PUBLIC "-//W3C//DTD SVG 1.1//EN" "http://www.w3.org/Graphics/SVG/1.1/DTD/svg11.dtd">
<svg version="1.1" xmlns="http://www.w3.org/2000/svg" xmlns:xlink="http://www.w3.org/1999/xlink" x="0px" y="0px" viewBox="0 0 1000 1000" enable-background="new 0 0 1000 1000" xml:space="preserve">
<metadata> Svg Vector Icons : http://www.onlinewebfonts.com/icon </metadata>
<g><g transform="translate(0.000000,511.000000) scale(0.100000,-0.100000)"><path d="M6938.2,4973.3c-100.3-20.5-194.4-47.1-210.7-61.4c-24.5-20.5-30.7-88-30.7-370.3v-345.8l-100.3-51.2c-55.2-26.6-159.6-96.2-233.2-151.4L6228.2,3893L5947.9,4024c-153.4,71.6-306.9,130.9-337.6,130.9c-51.1,0-75.7-24.6-184.1-186.2c-90-135-120.7-198.4-112.5-231.2c6.2-24.6,116.6-143.2,247.5-266c171.9-161.6,233.3-231.2,225.1-255.8c-30.7-75.7-75.7-278.3-88-394.9l-14.3-124.8l-296.7-110.5c-163.7-61.4-313-126.9-333.5-147.3c-36.8-36.8-36.8-43,4.1-247.6c24.6-116.6,53.2-223,65.5-239.4c18.4-20.5,104.4-26.6,368.3-26.6h345.8l51.2-100.3c26.6-55.3,96.2-161.6,151.4-235.3l102.3-133l-133-286.4c-71.6-157.5-131-308.9-131-337.6c0-42.9,32.8-73.6,184.1-175.9c100.3-67.5,198.5-122.8,218.9-122.8c20.5-2.1,139.1,106.4,272.1,245.5l235.3,245.5l126.9-38.9c69.5-22.5,194.4-49.1,276.2-57.3l147.3-16.4l110.5-296.7c59.3-163.7,124.8-313,145.3-333.5c34.8-36.8,43-36.8,247.6,4.1c118.7,22.5,225.1,53.2,243.5,71.6c28.7,28.7,30.7,81.8,26.6,370.3l-8.2,335.5l124.8,61.4c67.5,34.8,173.9,104.4,235.3,153.4l110.5,92.1l286.4-133c157.5-71.6,311-130.9,337.6-130.9c43,0,75.7,34.8,175.9,178c69.6,98.2,124.8,198.4,124.8,223c0,30.7-77.7,118.7-245.5,278.3l-245.5,231.2l42.9,133c22.5,73.6,47.1,196.4,55.3,274.2l14.3,141.2l296.7,110.5c163.7,61.4,313.1,128.9,335.6,149.4c36.8,36.8,36.8,40.9,0,237.3c-55.2,292.6-36.8,282.3-439.9,276.2l-335.5-4.1l-67.5,124.8c-36.8,67.5-108.4,171.9-155.5,233.2l-90,108.5l130.9,282.3c71.6,155.5,131,308.9,131,339.6c0,47.1-26.6,75.7-178,180c-98.2,69.6-198.5,124.8-221,124.8c-26.6,0-126.8-90-276.2-245.5l-235.3-245.5l-133,40.9c-73.7,24.6-196.4,49.1-272.1,57.3l-141.2,14.3l-118.7,315.1c-65.4,171.9-130.9,323.3-147.3,331.5C7169.4,5018.3,7153,5016.3,6938.2,4973.3z M8253.8,3481.8c163.7-161.6,173.9-141.2-384.6-701.8L7384.2,2293l147.3-149.4c147.3-147.3,182.1-221,114.6-247.6c-18.4-6.1-261.9-40.9-544.2-75.7c-462.4-59.3-513.5-61.4-542.2-32.7c-28.7,28.7-26.6,79.8,32.7,548.3c34.8,284.4,75.7,529.9,88,544.2c40.9,51.2,88,26.6,235.3-120.7l149.3-147.3l487,484.9C8112.6,3655.7,8092.2,3645.4,8253.8,3481.8z"/><path d="M3705.5,2186.6c-24.5-18.4-65.5-151.4-126.8-403.1c-49.1-206.6-102.3-384.6-118.7-392.8c-14.3-10.2-53.2-18.4-88-18.4c-32.7,0-143.2-18.4-243.5-40.9c-102.3-22.5-186.2-40.9-188.2-40.9c0,0-102.3,143.2-225.1,317.1c-145.3,208.7-239.4,321.2-270.1,329.4c-59.3,16.4-427.6-149.4-468.5-210.7c-26.6-40.9-20.5-77.7,77.8-409.2c57.3-200.5,110.5-374.4,114.6-384.6c4.1-12.3-36.8-53.2-90-94.1c-55.2-40.9-149.4-120.7-212.8-178l-116.6-106.4l-360.1,165.7c-235.3,108.4-372.4,159.6-399,151.4C935.2,854.7,702,508.9,702,445.5c0-38.9,67.5-116.6,286.4-325.3L1276.9-156l-71.6-182.1c-38.9-100.2-75.7-216.9-83.9-257.8c-16.4-90,10.2-81.8-478.8-126.9c-227.1-22.5-345.8-40.9-366.2-61.4c-18.4-18.4-34.8-110.5-47.1-259.8c-16.4-212.8-16.4-235.3,20.5-270.1c24.6-24.6,157.5-65.5,382.6-118.7c190.3-45,358.1-88,374.4-96.1c18.4-10.2,43-96.2,65.5-221c18.4-110.5,40.9-231.2,49.1-266c14.3-61.4,8.2-65.5-259.8-253.7c-311-216.9-384.6-280.3-384.6-327.4c0-63.4,200.5-446,239.4-458.3c22.5-6.1,208.7,38.9,417.4,100.3l376.5,114.6l61.4-77.7c32.7-42.9,114.6-133,178-202.5c65.5-67.5,118.7-130.9,118.7-141.2c0-8.2-69.6-165.7-153.4-349.9c-83.9-184.1-153.5-356-153.5-382.6c0-26.6,20.5-67.5,45-90c96.2-85.9,335.5-231.2,380.5-231.2c26.6,0,73.7,24.6,102.3,57.3c30.7,30.7,153.5,159.6,276.2,288.5l221,231.2l85.9-34.8c47.1-20.5,163.7-61.4,259.8-92.1l173.9-55.3l34.8-366.2c40.9-431.7,45-452.2,96.2-468.6c75.7-24.6,441.9-45,487-28.6c49.1,18.4,45,6.2,159.6,489l73.7,317.1l218.9,38.9c360.1,63.4,304.9,88,560.6-268c149.4-210.7,237.3-317.1,270.1-325.3c71.6-16.4,458.3,180,472.6,241.4c6.2,28.6-34.8,202.5-100.2,415.3l-112.5,368.3l65.5,51.2c36.8,28.6,126.8,108.4,200.5,178c73.7,71.6,145.3,128.9,155.5,128.9c12.3,0,171.9-69.6,356-153.5c182.1-83.9,356-153.4,386.7-153.4c47.1,0,73.7,26.6,182.1,190.3c69.6,106.4,124.8,212.8,124.8,241.4c0,40.9-65.5,114.6-286.4,323.3l-284.4,270.1l43,106.4c24.5,59.3,63.4,175.9,88,259.8l47.1,153.5l364.2,34.8c202.6,20.5,386.7,40.9,413.3,47.1c63.4,14.3,77.7,65.5,94.1,311c12.3,186.2,10.2,212.8-22.5,245.5c-24.6,24.5-171.9,69.6-411.2,126.8c-204.6,47.1-372.4,90-372.4,90c-24.5,118.7-85.9,468.5-87.9,503.3c-4.1,40.9,47,85.9,313,276.2c204.6,147.3,319.2,241.4,323.3,268c6.1,49.1-161.6,419.4-210.8,460.4c-38.9,32.7-81.8,22.5-525.8-108.4l-300.8-90l-49.1,73.7c-28.6,40.9-106.4,135-178,210.8l-126.8,139.1l153.4,331.5c153.4,333.5,163.7,362.1,159.6,429.7c-2.1,51.2-396.9,311-446,294.6c-20.5-6.1-155.5-139.1-302.8-292.6c-145.3-155.5-274.2-280.3-286.5-278.3c-88,16.4-493.1,173.9-505.4,194.4c-8.2,14.3-28.6,192.3-45,394.9c-36.8,417.4-47.1,439.9-204.6,439.9c-45,0-143.2,6.1-216.9,12.3C3777.1,2211.2,3730,2207.1,3705.5,2186.6z M4974-10.8c61.4-42.9,59.3-55.2-45-904.3c-94.1-759.1-106.4-802-202.6-802c-24.6,0-133,92.1-274.2,229.2L4219-1258.9l-710-707.9c-390.8-390.8-732.5-718.1-763.2-730.4c-92.1-32.7-165.7-2-296.7,128.9c-143.2,143.2-171.9,218.9-122.8,323.3c18.4,36.8,345.8,380.5,728.4,763.2l695.6,693.6l-225.1,229.2c-133,133-225.1,243.5-225.1,268c0,106.4,6.1,108.4,830.7,210.7c425.6,53.2,779.5,98.2,785.7,100.2C4922.9,22,4949.5,7.6,4974-10.8z"/></g></g>
</svg>