<?xml version="1.0" standalone="no"?>
<!DOCTYPE svg PUBLIC "-//W3C//DTD SVG 20010904//EN"
 "http://www.w3.org/TR/2001/REC-SVG-20010904/DTD/svg10.dtd">
<svg version="1.0" xmlns="http://www.w3.org/2000/svg"
 width="128.000000pt" height="128.000000pt" viewBox="0 0 128.000000 128.000000"
 preserveAspectRatio="xMidYMid meet">

<g transform="translate(0.000000,128.000000) scale(0.100000,-0.100000)"
fill="#000000" stroke="none">
<path d="M368 1255 c-87 -22 -156 -61 -218 -124 -280 -284 -113 -749 286 -795
73 -9 181 12 254 49 l53 27 198 -198 199 -199 65 65 65 65 -199 199 -199 199
29 61 c96 207 25 454 -169 588 -94 65 -251 92 -364 63z m263 -122 c241 -114
289 -423 94 -602 -74 -67 -146 -94 -250 -94 -130 0 -235 56 -304 163 -96 148
-77 335 47 459 83 83 159 112 278 107 54 -2 87 -10 135 -33z"/>
<path d="M534 1046 c-42 -19 -75 -68 -78 -117 -2 -36 -11 -49 -109 -147 -95
-96 -107 -111 -107 -142 0 -52 8 -59 63 -53 47 6 48 6 41 36 -6 29 -6 30 26
23 32 -6 32 -5 26 25 -6 30 -5 31 25 27 30 -5 30 -4 24 29 -6 33 -5 33 22 27
15 -3 33 -7 39 -9 7 -2 22 7 35 21 15 16 33 24 56 24 54 0 92 26 115 77 33 74
4 149 -68 179 -41 17 -70 17 -110 0z m134 -72 c4 -27 -26 -40 -46 -20 -21 20
-8 48 20 44 14 -2 24 -11 26 -24z"/>
</g>
</svg>
