<?xml version="1.0" encoding="utf-8"?>
<!-- Svg Vector Icons : http://www.onlinewebfonts.com/icon -->
<!DOCTYPE svg PUBLIC "-//W3C//DTD SVG 1.1//EN" "http://www.w3.org/Graphics/SVG/1.1/DTD/svg11.dtd">
<svg version="1.1" xmlns="http://www.w3.org/2000/svg" xmlns:xlink="http://www.w3.org/1999/xlink" x="0px" y="0px" viewBox="0 0 1000 1000" enable-background="new 0 0 1000 1000" xml:space="preserve">
<metadata> Svg Vector Icons : http://www.onlinewebfonts.com/icon </metadata>
<g><g><path d="M794.5,304.5v-98.9H205.5v98.9H794.5z M794.5,451.7v-98.9H205.5v98.9H794.5z M794.5,598.9V500H205.5v98.9H794.5z M893.4,10c26.1,0,48.7,9.6,67.9,28.8S990,80.5,990,106.6v588.9c0,26.1-9.6,49.1-28.8,69c-19.2,19.9-41.8,29.9-67.9,29.9H205.5L10,990V106.6c0-26.1,9.6-48.7,28.8-67.9S80.5,10,106.6,10H893.4z"/></g></g>
</svg>