<?xml version="1.0" standalone="no"?>
<!DOCTYPE svg PUBLIC "-//W3C//DTD SVG 20010904//EN"
 "http://www.w3.org/TR/2001/REC-SVG-20010904/DTD/svg10.dtd">
<svg version="1.0" xmlns="http://www.w3.org/2000/svg"
 width="800.000000pt" height="600.000000pt" viewBox="0 0 800.000000 600.000000"
 preserveAspectRatio="xMidYMid meet">
<metadata>
Created by potrace 1.16, written by Peter Selinger 2001-2019
</metadata>
<g transform="translate(0.000000,600.000000) scale(0.100000,-0.100000)"
fill="#000000" stroke="none">
<path d="M1570 5765 l0 -135 -495 0 -495 0 0 -2645 0 -2645 3280 0 3280 0 0
2645 0 2645 -520 0 -520 0 0 125 0 125 -205 0 -205 0 0 -125 0 -125 -1855 0
-1855 0 0 135 0 135 -205 0 -205 0 0 -135z m330 -240 l0 -305 -135 0 -135 0 0
305 0 305 135 0 135 0 0 -305z m4130 -20 l0 -305 -135 0 -135 0 0 305 0 305
135 0 135 0 0 -305z m-4460 -200 l0 -175 205 0 205 0 0 175 0 175 1855 0 1855
0 0 -185 0 -185 205 0 205 0 0 185 0 185 430 0 430 0 0 -340 0 -340 -3120 0
-3120 0 0 340 0 340 425 0 425 0 0 -175z m5390 -2785 l0 -2010 -3120 0 -3120
0 0 2010 0 2010 3120 0 3120 0 0 -2010z"/>
<path d="M2276 3638 c-4 -16 -21 -193 -41 -433 -8 -99 -22 -250 -30 -335 -8
-85 -20 -213 -25 -283 -6 -70 -17 -178 -25 -239 -21 -160 -20 -176 11 -188 28
-11 198 -12 284 -2 l55 7 14 139 c16 154 17 153 51 -15 12 -58 26 -112 30
-120 7 -10 47 -13 181 -14 l173 0 27 134 c16 73 30 135 33 138 7 7 14 -45 21
-151 9 -135 -4 -127 195 -124 92 2 172 6 176 10 4 5 2 59 -4 120 -7 62 -14
145 -17 183 -7 102 -43 469 -60 620 -9 72 -20 198 -25 280 -6 83 -15 177 -20
210 -5 33 -10 63 -10 68 0 4 -87 6 -192 5 l-193 -3 -13 -65 c-53 -274 -95
-452 -103 -438 -4 7 -10 33 -13 58 -4 25 -15 83 -26 130 -10 47 -25 121 -34
165 -9 44 -21 97 -27 118 l-10 37 -190 0 c-143 0 -190 -3 -193 -12z"/>
<path d="M3743 3631 c-29 -10 -60 -24 -70 -31 -54 -41 -118 -111 -141 -155
l-27 -50 0 -495 0 -495 30 -58 c36 -73 108 -139 183 -169 49 -20 75 -23 192
-23 106 0 146 4 188 18 71 25 162 110 199 185 l28 57 3 444 c2 285 -1 462 -8
493 -31 148 -135 258 -269 287 -81 17 -247 13 -308 -8z m201 -347 c14 -5 16
-49 16 -385 l0 -379 -49 0 -48 0 -1 378 c0 207 2 380 5 385 5 9 55 9 77 1z"/>
<path d="M4420 3568 c-1 -269 -2 -1349 -1 -1380 l1 -38 175 0 c96 0 176 1 177
3 1 1 4 94 7 206 l6 205 45 -114 c25 -62 49 -124 54 -139 5 -14 15 -39 22 -56
7 -16 16 -42 19 -58 4 -15 12 -30 19 -34 6 -4 86 -9 179 -10 l167 -3 0 750 0
750 -175 0 c-96 0 -176 -1 -177 -2 -1 -2 -4 -100 -7 -218 l-6 -214 -33 89
c-39 105 -74 196 -107 280 l-24 60 -170 3 -171 2 0 -82z"/>
</g>
</svg>
