<?xml version="1.0" standalone="no"?>
<!DOCTYPE svg PUBLIC "-//W3C//DTD SVG 20010904//EN"
 "http://www.w3.org/TR/2001/REC-SVG-20010904/DTD/svg10.dtd">
<svg version="1.0" xmlns="http://www.w3.org/2000/svg"
 width="800.000000pt" height="600.000000pt" viewBox="0 0 800.000000 600.000000"
 preserveAspectRatio="xMidYMid meet">

<g transform="translate(0.000000,600.000000) scale(0.100000,-0.100000)"
fill="#000000" stroke="none">
<path d="M3150 4733 c-145 -16 -274 -111 -340 -249 -59 -122 -79 -297 -80
-680 0 -401 -40 -556 -167 -648 -50 -36 -136 -66 -191 -66 l-32 0 0 -150 0
-150 28 -5 c167 -33 238 -78 292 -188 51 -104 59 -171 70 -532 5 -181 12 -368
16 -415 18 -240 106 -394 269 -471 80 -38 144 -49 286 -49 l119 0 0 145 0 145
-80 0 c-155 0 -229 34 -264 121 -24 60 -35 204 -36 464 -1 471 -42 640 -194
790 -43 43 -97 84 -138 105 l-67 34 60 32 c83 45 160 106 196 156 112 157 143
323 143 775 0 260 11 373 43 441 36 78 114 111 260 112 l77 0 0 145 0 145
-117 -2 c-65 0 -134 -3 -153 -5z"/>
<path d="M4680 4596 l0 -146 86 0 c154 0 229 -33 266 -119 25 -58 37 -229 38
-518 0 -504 72 -688 326 -837 l73 -43 -52 -25 c-123 -61 -205 -142 -261 -263
-68 -144 -85 -269 -86 -633 0 -360 -17 -472 -78 -529 -45 -42 -90 -55 -204
-61 l-108 -5 0 -145 0 -144 153 5 c121 3 164 9 211 26 122 44 205 119 259 233
48 103 58 173 68 493 16 530 28 634 86 733 45 76 149 148 232 159 89 11 81 -5
81 163 l0 150 -37 0 c-91 0 -209 64 -265 145 -60 86 -88 253 -88 535 -1 219
-17 496 -35 580 -35 170 -129 291 -270 350 -74 30 -87 32 -237 37 l-158 6 0
-147z"/>
</g>
</svg>
