<?xml version="1.0" standalone="no"?>
<!DOCTYPE svg PUBLIC "-//W3C//DTD SVG 20010904//EN"
 "http://www.w3.org/TR/2001/REC-SVG-20010904/DTD/svg10.dtd">
<svg version="1.0" xmlns="http://www.w3.org/2000/svg"
 width="853.000000pt" height="854.000000pt" viewBox="0 0 853.000000 854.000000"
 preserveAspectRatio="xMidYMid meet">
<metadata>
Created by potrace 1.16, written by Peter Selinger 2001-2019
</metadata>
<g transform="translate(0.000000,854.000000) scale(0.100000,-0.100000)"
fill="#000000" stroke="none">
<path d="M1210 8527 c0 -4 -6 -7 -12 -6 -43 8 -106 -45 -411 -349 l-318 -317
899 -900 c494 -495 972 -972 1061 -1060 l161 -160 305 305 c287 287 354 359
359 392 1 7 4 18 8 23 11 18 3 179 -10 203 -7 12 -10 22 -7 22 4 0 -7 19 -24
43 -37 51 -1723 1735 -1768 1766 -18 12 -45 25 -60 27 -15 3 -31 8 -36 11 -15
9 -147 9 -147 0z"/>
<path d="M262 7628 c-23 -35 -46 -69 -52 -75 -6 -7 -8 -13 -6 -13 3 0 -8 -25
-24 -55 -16 -30 -28 -55 -26 -55 2 0 -12 -39 -31 -87 -19 -49 -35 -98 -35
-110 0 -13 -5 -23 -10 -23 -5 0 -6 -4 -3 -10 3 -5 3 -15 -1 -22 -4 -7 -9 -23
-10 -36 -2 -13 -10 -55 -19 -94 -15 -66 -21 -108 -32 -223 -6 -66 -5 -374 1
-450 3 -33 6 -69 7 -80 0 -11 10 -76 21 -145 12 -69 22 -134 22 -145 1 -11 5
-26 9 -32 5 -7 6 -17 2 -22 -3 -5 -1 -12 3 -15 5 -3 9 -18 10 -33 1 -15 12
-66 26 -112 14 -46 23 -87 20 -92 -3 -5 0 -9 6 -9 7 0 10 -6 7 -14 -3 -7 0
-19 6 -25 6 -6 7 -11 3 -11 -5 0 -3 -7 4 -15 7 -8 10 -15 7 -15 -3 0 7 -35 23
-77 15 -43 28 -82 28 -86 1 -23 100 -268 170 -419 19 -42 35 -80 35 -85 -1 -4
10 -27 24 -50 14 -24 21 -43 16 -43 -4 0 -3 -4 2 -8 6 -4 18 -23 27 -42 10
-19 40 -75 68 -125 28 -49 56 -101 62 -115 7 -14 38 -68 70 -122 32 -53 58
-99 58 -102 0 -3 16 -28 35 -55 19 -26 35 -51 35 -55 0 -3 29 -49 65 -101 36
-52 65 -98 65 -104 0 -5 4 -11 8 -13 4 -1 37 -46 73 -98 35 -52 93 -134 129
-182 36 -48 79 -106 95 -129 17 -23 46 -61 65 -84 19 -24 55 -69 80 -101 100
-130 236 -289 438 -516 67 -76 122 -140 122 -142 0 -3 27 -30 60 -62 33 -31
62 -65 65 -75 4 -11 10 -19 14 -19 4 0 131 -123 282 -272 289 -288 434 -424
639 -603 69 -60 130 -114 136 -119 6 -6 28 -24 49 -41 21 -16 43 -35 49 -40
27 -26 289 -232 401 -316 39 -29 72 -55 75 -58 3 -3 12 -10 21 -16 10 -5 37
-24 60 -41 98 -68 148 -103 224 -154 44 -30 82 -57 85 -60 3 -3 16 -11 30 -17
14 -7 75 -44 135 -83 61 -39 121 -76 135 -83 14 -6 45 -24 70 -39 121 -73 570
-298 593 -298 9 0 22 -6 29 -12 7 -7 20 -14 28 -16 8 -2 39 -14 69 -28 29 -13
60 -24 67 -24 8 0 14 -4 14 -8 0 -4 8 -8 18 -9 24 -2 116 -36 120 -46 2 -4 7
-5 12 -2 4 3 49 -10 98 -29 50 -18 93 -31 96 -28 3 3 12 0 19 -6 8 -7 17 -9
20 -5 4 3 7 1 7 -6 0 -7 4 -10 9 -7 4 3 48 -6 97 -20 49 -15 99 -26 112 -26
12 0 25 -5 28 -9 3 -5 10 -7 15 -4 5 4 15 3 22 -2 6 -4 23 -8 37 -9 14 -1 64
-9 112 -19 84 -16 142 -23 238 -31 62 -5 455 -5 510 0 97 9 148 17 235 38 50
12 98 21 108 20 9 0 17 3 17 8 0 5 8 8 18 8 9 -1 47 11 84 26 37 15 75 29 85
30 37 8 201 107 258 158 21 17 19 20 -182 225 -558 570 -1128 1141 -1135 1137
-5 -3 -8 1 -8 8 0 17 -125 139 -134 131 -3 -4 -6 -1 -6 5 0 14 -47 62 -61 62
-6 0 -8 3 -6 8 2 4 -25 35 -60 69 -35 35 -63 61 -63 58 0 -2 -89 85 -197 193
l-198 197 -30 -29 c-36 -34 -113 -71 -181 -86 -53 -12 -125 -6 -186 16 -21 7
-38 11 -38 7 0 -3 -11 2 -25 11 -14 9 -25 14 -25 11 0 -6 -153 70 -189 94 -14
10 -46 31 -71 47 -25 16 -46 32 -48 37 -2 4 -8 7 -13 7 -8 0 -274 195 -343
251 -16 13 -79 65 -140 114 -61 50 -120 97 -131 107 -11 9 -51 42 -90 74 -38
31 -87 75 -108 96 -21 21 -41 38 -44 38 -24 0 -547 505 -752 725 -46 50 -101
108 -122 130 -22 22 -39 44 -39 48 0 5 -14 20 -30 34 -17 13 -30 29 -30 33 0
5 -17 26 -38 47 -21 21 -62 67 -91 103 -29 36 -60 74 -70 85 -20 23 -121 151
-168 213 -18 23 -33 46 -33 51 0 5 -4 11 -9 13 -18 7 -191 285 -191 308 0 4
-12 33 -26 64 -14 31 -23 60 -19 66 3 5 1 10 -5 10 -7 0 -10 7 -7 15 4 8 2 17
-3 20 -5 3 -9 13 -9 23 -2 146 1 207 9 207 1 0 3 9 4 21 2 17 46 96 88 156 10
14 -6 35 -104 140 -64 67 -190 195 -280 282 -117 114 -1661 1641 -1719 1701
-4 3 -25 -22 -47 -57z"/>
<path d="M6504 3226 c-22 -7 -56 -21 -75 -32 -37 -21 -649 -622 -649 -639 0
-5 465 -476 1034 -1045 l1033 -1035 310 310 c298 298 353 359 353 398 0 9 4
17 8 17 8 0 9 181 2 188 -1 1 -3 5 -4 10 -1 4 -14 31 -30 60 -22 39 -215 236
-768 783 -406 403 -738 736 -738 741 0 9 -144 158 -153 158 -3 0 -28 16 -57
35 -89 60 -181 78 -266 51z"/>
</g>
</svg>
