<?xml version="1.0" encoding="utf-8"?>
<!-- Svg Vector Icons : http://www.onlinewebfonts.com/icon -->
<!DOCTYPE svg PUBLIC "-//W3C//DTD SVG 1.1//EN" "http://www.w3.org/Graphics/SVG/1.1/DTD/svg11.dtd">
<svg version="1.1" xmlns="http://www.w3.org/2000/svg" xmlns:xlink="http://www.w3.org/1999/xlink" x="0px" y="0px" viewBox="0 0 1000 1000" enable-background="new 0 0 1000 1000" xml:space="preserve">
<metadata> Svg Vector Icons : http://www.onlinewebfonts.com/icon </metadata>
<g><path d="M505.4,244c165.1,1.6,268.6-8.6,282.5,174.4h201.4c0-283.5-247.3-321.8-489.1-321.8C258.3,96.6,11,134.8,11,418.3h199.8C226.2,231.8,341.6,242.3,505.4,244L505.4,244z M110.9,509.5c49,0,89.9,2.9,98.9-45.3c1.2-6.6,1.9-14,1.9-22.6h-2.3H10C10,513.4,55.2,509.5,110.9,509.5L110.9,509.5z M789.2,441.6h-1.9c0,8.7,0.7,16.1,2.1,22.6c9.6,44.5,50.3,41.7,99.2,41.7c56,0,101.3,3.7,101.3-64.3H789.2L789.2,441.6z M690.9,392.7v-28.5c0-12.8-14.7-13.5-32.8-13.5h-29.6c-18.1,0-32.8,0.8-32.8,13.5v24.6v19.1H385.9v-19.1v-24.6c0-12.8-14.7-13.5-32.8-13.5h-29.7c-18.1,0-32.8,0.8-32.8,13.5v28.5v24.9C242.8,467.2,86.5,678.5,80.8,704.1l0.1,170.7c0,15.8,12.8,28.6,28.6,28.6h762.5c15.8,0,28.6-12.8,28.6-28.6V703.3c-5.6-24.8-161.9-236-209.7-285.7V392.7L690.9,392.7z M375.5,727.1c-15.3,0-27.8-12.4-27.8-27.8c0-15.4,12.4-27.8,27.8-27.8c15.3,0,27.8,12.4,27.8,27.8C403.3,714.7,390.9,727.1,375.5,727.1L375.5,727.1z M375.5,631.8c-15.3,0-27.8-12.4-27.8-27.8c0-15.4,12.4-27.8,27.8-27.8c15.3,0,27.8,12.4,27.8,27.8C403.3,619.4,390.9,631.8,375.5,631.8L375.5,631.8z M375.5,536.5c-15.3,0-27.8-12.4-27.8-27.8c0-15.3,12.4-27.8,27.8-27.8c15.3,0,27.8,12.5,27.8,27.8C403.3,524.1,390.9,536.5,375.5,536.5L375.5,536.5z M489.9,727.1c-15.3,0-27.8-12.4-27.8-27.8c0-15.4,12.4-27.8,27.8-27.8c15.4,0,27.8,12.4,27.8,27.8C517.7,714.7,505.3,727.1,489.9,727.1L489.9,727.1z M489.9,631.8c-15.3,0-27.8-12.4-27.8-27.8c0-15.4,12.4-27.8,27.8-27.8c15.4,0,27.8,12.4,27.8,27.8C517.7,619.4,505.3,631.8,489.9,631.8L489.9,631.8z M489.9,536.5c-15.3,0-27.8-12.4-27.8-27.8c0-15.3,12.4-27.8,27.8-27.8c15.4,0,27.8,12.5,27.8,27.8C517.7,524.1,505.3,536.5,489.9,536.5L489.9,536.5z M604.3,727.1c-15.4,0-27.8-12.4-27.8-27.8c0-15.4,12.4-27.8,27.8-27.8c15.4,0,27.8,12.4,27.8,27.8C632.1,714.7,619.6,727.1,604.3,727.1L604.3,727.1z M604.3,631.8c-15.4,0-27.8-12.4-27.8-27.8c0-15.4,12.4-27.8,27.8-27.8c15.4,0,27.8,12.4,27.8,27.8C632.1,619.4,619.6,631.8,604.3,631.8L604.3,631.8z M604.3,536.5c-15.4,0-27.8-12.4-27.8-27.8c0-15.3,12.4-27.8,27.8-27.8c15.4,0,27.8,12.5,27.8,27.8C632.1,524.1,619.6,536.5,604.3,536.5L604.3,536.5z"/></g>
</svg>