<?xml version="1.0" encoding="utf-8"?>
<!-- Svg Vector Icons : http://www.onlinewebfonts.com/icon -->
<!DOCTYPE svg PUBLIC "-//W3C//DTD SVG 1.1//EN" "http://www.w3.org/Graphics/SVG/1.1/DTD/svg11.dtd">
<svg version="1.1" xmlns="http://www.w3.org/2000/svg" xmlns:xlink="http://www.w3.org/1999/xlink" x="0px" y="0px" viewBox="0 0 1000 1000" enable-background="new 0 0 1000 1000" xml:space="preserve">
<metadata> Svg Vector Icons : http://www.onlinewebfonts.com/icon </metadata>
<g><g transform="translate(0.000000,511.000000) scale(0.100000,-0.100000)"><path d="M1583.4,4732.7c-410.1-107.3-688-536.6-617.1-954.4c46-268.3,228-511.7,473.3-630.5c603.7-295.1,1307,226.1,1205.4,891.1c-26.8,176.3-97.7,318.1-226.1,456.1C2200.5,4730.8,1903.4,4815.1,1583.4,4732.7z"/><path d="M7943.9,4730.8c-155.2-49.8-258.7-116.9-373.7-235.7c-111.2-120.7-166.7-218.5-207-373.7c-55.6-212.7-23-448.4,92-642c61.3-103.5,231.9-266.4,335.4-320c343-174.4,743.6-107.3,1008,170.6c212.7,222.3,287.5,504,212.7,795.3C8892.5,4585.2,8386.6,4870.7,7943.9,4730.8z"/><path d="M604.1,2776.1c-201.2-65.1-352.6-205.1-452.3-419.7l-51.7-109.2V742.8c0-1673-7.7-1563.8,128.4-1703.7c107.3-109.2,195.5-141.8,404.4-151.4l185.9-7.7v-1613.6c0-1496.7,1.9-1617.4,34.5-1678.8c65.2-132.2,72.8-134.2,948.6-134.2c850.9,0,877.7,3.8,946.7,107.3c32.6,51.7,34.5,191.6,44.1,3100.7l9.6,3047.1L3701,610.5C4195.4,6.9,4622.8-508.6,4649.6-533.6c168.6-155.2,490.6-130.3,666.9,53.7c86.2,88.1,120.7,184,120.7,331.5c0,157.1-36.4,233.8-187.8,396.7C5105.7,401.7,4632.4,961.2,3862,1886.9c-335.4,402.4-638.2,753.1-672.6,780c-145.6,111.2-231.9,134.1-528.9,141.8l-276,7.7l-149.5-149.5l-151.4-149.5l-134.1,132.2l-134.2,132.2l-139.9-138l-138-138l-153.3,153.3l-153.3,153.3l-258.7-1.9C776.6,2810.6,686.5,2801,604.1,2776.1z"/><path d="M7033.6,2783.7c-120.7-36.4-237.6-111.1-323.9-205.1c-65.2-70.9-827.9-981.2-1402.8-1676.9l-178.2-216.5l193.5-214.6C5535,233,5602.1,123.8,5636.6-48.7l23-115l766.5,937.1l764.6,937.1l9.6-3049c9.6-2909.1,11.5-3049,44.1-3100.7c69-103.5,95.8-107.3,946.7-107.3c873.9,0,875.8,0,948.6,136.1c32.6,61.3,34.5,151.4,34.5,1676.9V-1120l187.8,7.7c141.8,5.7,205.1,17.2,264.5,49.8c105.4,53.7,228.1,195.5,254.9,295.1c17.2,61.3,21.1,467.6,17.2,1548.5l-5.8,1466l-51.7,109.2c-69,147.5-134.2,231.9-249.1,314.3c-147.6,109.2-281.7,141.8-578.8,141.8h-251l-153.3-153.3l-153.3-153.3l-138,138l-139.9,138l-134.2-132.2l-134.2-132.2l-149.5,147.6l-147.6,147.6l-249.1-1.9C7213.8,2810.6,7081.5,2799.1,7033.6,2783.7z"/><path d="M6211.5-838.3l-170.6-277.9H4714.8H3386.7v-1609.8v-1609.8h1609.8h1609.8v1609.8v1609.8h-57.5h-57.5l107.3,174.4c90.1,145.7,103.5,178.2,82.4,197.4c-28.7,26.8-279.8,184-291.3,184C6384-560.4,6305.4-685,6211.5-838.3z M5910.6-1321.2c-9.6-19.2-1052.1-1719-1057.9-1726.7c-1.9-1.9-111.1,139.9-241.5,316.2c-130.3,176.3-308.5,419.7-396.7,538.5l-159.1,214.6l-151.4-115l-153.3-116.9l93.9-128.4c601.8-820.2,1013.8-1372.1,1027.2-1376c11.5-3.8,350.7,534.7,757,1193.9c406.3,661.2,749.3,1203.5,762.7,1209.2c17.3,5.7,23-285.5,23-1412.4v-1420H4996.5H3578.3v1418.1v1418.1h1170.9C5391.3-1307.8,5914.4-1313.5,5910.6-1321.2z"/></g></g>
</svg>