<?xml version="1.0" encoding="utf-8"?>
<!-- Svg Vector Icons : http://www.onlinewebfonts.com/icon -->
<!DOCTYPE svg PUBLIC "-//W3C//DTD SVG 1.1//EN" "http://www.w3.org/Graphics/SVG/1.1/DTD/svg11.dtd">
<svg version="1.1" xmlns="http://www.w3.org/2000/svg" xmlns:xlink="http://www.w3.org/1999/xlink" x="0px" y="0px" viewBox="0 0 1000 1000" enable-background="new 0 0 1000 1000" xml:space="preserve">
<metadata> Svg Vector Icons : http://www.onlinewebfonts.com/icon </metadata>
<g><path d="M708.8,363.6c0-115.3-93.5-208.8-208.8-208.8c-115.3,0-208.8,93.5-208.8,208.8c0,99.3,69.4,182.3,162.4,203.4V990H500l69.6-89.9v-50.8l-46.4-21.8l46.4-23.2v-43.5L500,711.6l69.6-69.6v-81.7C650.7,531.6,708.8,454.5,708.8,363.6z M500,224.5c25.6,0,46.4,20.8,46.4,46.4c0,25.6-20.8,46.4-46.4,46.4c-25.6,0-46.4-20.8-46.4-46.4C453.6,245.2,474.4,224.5,500,224.5z"/><path d="M332.2,619.1c-2.1,0-4.1,0.3-6.2,0.6V619c-110.8-45.4-188.2-147.8-188.2-267.1c0-69.9,26.8-133.8,71.1-184l29.5,33.2l41.2-162.4H94l61.8,69.5c-67,64-108.2,149.4-108.2,243.7c0,156.2,112.7,288.7,269.8,338.3c1.1,0.5,2.2,0.7,3.3,1.1c1.8,0.5,3.5,1.2,5.3,1.8v-0.4c2,0.4,4.1,0.6,6.2,0.6c20.5,0,37.1-16.6,37.1-37.1C369.3,635.7,352.7,619.1,332.2,619.1z"/><path d="M952.4,351.4c0-156.2-112.7-288.7-269.8-338.3c-1.1-0.5-2.2-0.7-3.3-1.1c-1.8-0.6-3.5-1.2-5.3-1.8v0.4c-2-0.3-4.1-0.6-6.2-0.6c-20.5,0-37.1,16.6-37.1,37.1c0,20.5,16.6,37.1,37.1,37.1c2.1,0,4.2-0.3,6.2-0.6v0.7c110.8,45.4,188.2,147.8,188.2,267.1c0,69.9-26.8,133.8-71.1,184l-29.5-33.2l-41.2,162.4H906l-61.8-69.5C911.2,531,952.4,445.6,952.4,351.4z"/></g>
</svg>