<?xml version="1.0" encoding="utf-8"?>
<!-- Svg Vector Icons : http://www.onlinewebfonts.com/icon -->
<!DOCTYPE svg PUBLIC "-//W3C//DTD SVG 1.1//EN" "http://www.w3.org/Graphics/SVG/1.1/DTD/svg11.dtd">
<svg version="1.1" xmlns="http://www.w3.org/2000/svg" xmlns:xlink="http://www.w3.org/1999/xlink" x="0px" y="0px" viewBox="0 0 1000 1000" enable-background="new 0 0 1000 1000" xml:space="preserve">
<metadata> Svg Vector Icons : http://www.onlinewebfonts.com/icon </metadata>
<g><path d="M340.3,282.3c0,51.5,41.8,93.3,93.3,93.3c51.5,0,93.3-41.8,93.3-93.3c0-51.5-41.8-93.3-93.3-93.3C382,189,340.3,230.8,340.3,282.3L340.3,282.3L340.3,282.3z"/><path d="M490.5,408.9c48.3-21.7,82.1-70.2,82.1-126.5c0-76.7-62.4-139-139-139c-76.7,0-139,62.3-139,139c0,56.3,33.8,104.7,82.1,126.5c18.3-4.7,37.2-8,57-8S472.1,404.2,490.5,408.9z M340.3,282.3c0-51.5,41.9-93.2,93.3-93.2c51.4,0,93.2,41.8,93.2,93.2c0,51.4-41.9,93.3-93.2,93.3C382.2,375.7,340.3,333.7,340.3,282.3z"/><path d="M476,607.9H250.8c11.3-90.8,89-161.3,182.8-161.3c48.1,0,91.8,18.7,124.6,49.1c10-7,19.8-14.2,30.1-19.6l9.6-5c-28.9-29.9-65.9-51.5-107.4-62.2c-17.5,7.9-36.6,12.5-56.8,12.5s-39.5-4.6-57-12.5c-99.1,25.5-173,114.9-173,221.9c0,12.7,10.3,22.9,22.8,22.9l219.6,4.1C446.2,657.8,473.2,613.7,476,607.9z"/><path d="M490.5,408.9c-18.3-4.7-37.1-8-56.8-8s-38.6,3.3-57,8c17.5,7.9,36.7,12.5,57,12.5S473,416.8,490.5,408.9z"/><path d="M761.4,692.7c-29.9-14.5-66-2.1-80.5,27.8c-14.5,29.9-2.1,66,27.9,80.5c5.5,2.8,11.1,3.6,16.8,4.4c25.5,4,51.8-7.8,63.7-32.2c11.1-23.2,5.9-49.7-10.8-67.6C773.7,700.6,768.2,696,761.4,692.7z"/><path d="M926.2,770.2c19.8-4.9,36.1-9.7,49-14.2c0.3-13.2-0.1-26.7-2.1-40.2c-0.1-1.2-0.2-2.3-0.4-3.5c-13.4-3.2-29.9-6.2-50.1-8.9c-2.6-11.5-6.4-22.5-10.8-33.1c14.6-14.1,26.3-26.3,35.1-36.8c-6.9-13-15-25.2-23.9-36.6c-13.1,3.9-29.1,9.6-47.9,17.3c-7.8-8.6-16.6-16.3-25.9-23.3c5.6-19.5,9.6-36,12.1-49.4c-12.3-7.7-25.5-14.3-39-19.8c-1.4,1.5-3.2,3.6-4.7,5.3c-8.4,9.2-17.5,20.1-28.1,33.7c-3.6-1.1-7.3-1.3-11-2.3c-7.7-1.9-15.2-3.9-23.1-4.9c-5-19.6-9.7-36-14.3-48.8c-13.2-0.5-26.7,0.1-40,2c-1.3,0.1-2.5,0.3-3.7,0.5c-3,13.2-6.2,29.9-8.9,50.1c-10.7,2.4-20.9,5.9-30.7,10c-0.9,0.3-1.6,0.4-2.4,0.8c-14.1-14.7-26.3-26.4-36.8-35.1c-7.7,4-14.5,9.4-21.7,14.3c-4.8,3.4-10.2,6-14.8,9.7c3.9,13.2,9.7,29,17.4,47.8c-8.1,7.7-15.6,16-22.2,24.7h-5.2c-17.5-4.9-32.8-8.6-45.3-10.9c-2.1,3.5-3.6,7.4-5.5,10.9c-5.1,9.2-10.4,18.4-14.2,28.2c5,4.7,10.7,9.7,17.1,15.2c6.5,5.5,13.7,11.3,21.7,17.4c-3.2,11.1-5.8,22.5-7,34.2c-19.7,4.9-36,9.7-48.9,14.3c-0.5,13.2,0.2,26.6,1.9,40.1c0.2,1.2,0.4,2.3,0.6,3.6c13.2,3.2,29.9,6.1,50.1,8.9c1.3,5.8,3.7,11.1,5.5,16.7c1.8,5.5,3.1,11.1,5.3,16.4c-8.5,8.3-15.8,15.7-22.4,22.7c-4.7,5-9.1,9.7-12.8,14c6.9,13,14.9,25.2,23.9,36.8c13-3.9,29.2-9.9,47.9-17.5c7.8,8.6,16.6,16.3,25.9,23.3c-5.6,19.5-9.7,36-12,49.4c12.2,7.7,25.4,14.3,39,19.8c9.4-9.9,20.2-22.8,32.7-39c11.1,3.4,22.4,5.8,34.1,7.2c5,19.7,9.7,36,14.3,48.8c13.2,0.4,26.6-0.2,40.2-2c1.2-0.1,2.3-0.2,3.6-0.4c3.1-13.3,6.1-30,8.8-50.2c11.5-2.6,22.5-6.3,33.1-10.8c14.1,14.6,26.5,26.3,36.9,35.2c13-6.9,25.2-14.9,36.6-23.9c-3.8-13-9.6-29.1-17.3-47.9c8.5-7.9,16.2-16.6,23.2-25.8c19.5,5.6,36.1,9.6,49.5,12c7.7-12.3,14.3-25.4,19.7-39.1c-9.9-9.3-22.8-20.2-39-32.6C922.5,793.3,924.9,781.9,926.2,770.2z M750.8,886.4c-44.3,5.8-86.2-10.2-115.9-39.3c-11.5-11.3-20.9-24.3-28.1-39.1c-6.4-13.2-11.3-27.1-13.3-42.4c-4.4-33.7,4.1-65.9,20.9-92.7c13.9-21.9,33.6-39.7,57.5-51.3c13.2-6.3,27.1-11.3,42.3-13.2c22.5-3,44.2,0.1,64.2,7.1c14,4.9,27.3,11.5,39.1,20.4c28.7,21.8,48.9,54.7,54,93.2C881.7,805.9,827.5,876.3,750.8,886.4z"/><path d="M384.9,745H171.7c-47.3,0-85.7-38.4-85.7-85.8V157c0-47.3,38.4-85.7,85.7-85.7H674c47.3,0,85.8,38.4,85.8,85.7v226c0,2.3,44.6,5.8,61.2,10.7V132.5C821,64.9,766.1,10,698.5,10H147.2C79.6,10,24.7,64.9,24.7,132.5v551.2c0,67.6,54.9,122.5,122.5,122.5h247C390,789.6,386.6,745,384.9,745z"/></g>
</svg>