<?xml version="1.0" standalone="no"?>
<!DOCTYPE svg PUBLIC "-//W3C//DTD SVG 20010904//EN"
 "http://www.w3.org/TR/2001/REC-SVG-20010904/DTD/svg10.dtd">
<svg version="1.0" xmlns="http://www.w3.org/2000/svg"
 width="800.000000pt" height="600.000000pt" viewBox="0 0 800.000000 600.000000"
 preserveAspectRatio="xMidYMid meet">
<metadata>
Created by potrace 1.16, written by Peter Selinger 2001-2019
</metadata>
<g transform="translate(0.000000,600.000000) scale(0.100000,-0.100000)"
fill="#000000" stroke="none">
<path d="M1570 5765 l0 -135 -495 0 -495 0 0 -2645 0 -2645 3280 0 3280 0 0
2645 0 2645 -520 0 -520 0 0 125 0 125 -205 0 -205 0 0 -125 0 -125 -1855 0
-1855 0 0 135 0 135 -205 0 -205 0 0 -135z m330 -240 l0 -305 -135 0 -135 0 0
305 0 305 135 0 135 0 0 -305z m4130 -20 l0 -305 -135 0 -135 0 0 305 0 305
135 0 135 0 0 -305z m-4460 -200 l0 -175 205 0 205 0 0 175 0 175 1855 0 1855
0 0 -185 0 -185 205 0 205 0 0 185 0 185 430 0 430 0 0 -340 0 -340 -3120 0
-3120 0 0 340 0 340 425 0 425 0 0 -175z m5390 -2785 l0 -2010 -3120 0 -3120
0 0 2010 0 2010 3120 0 3120 0 0 -2010z"/>
<path d="M2562 3628 c-94 -21 -198 -106 -241 -198 -25 -53 -26 -60 -26 -255
l0 -200 29 -53 c45 -81 93 -130 160 -165 53 -27 74 -32 161 -37 l100 -5 3
-107 3 -108 -35 0 c-59 0 -66 7 -66 66 l0 54 -177 -2 -178 -3 0 -121 0 -121
36 -59 c43 -69 113 -127 184 -151 75 -25 317 -20 394 9 67 26 136 92 174 167
27 55 27 56 27 271 0 213 0 216 -26 265 -42 80 -88 129 -154 164 -54 29 -73
34 -168 39 l-107 7 0 90 0 90 48 3 47 3 0 -40 c0 -74 -7 -71 185 -71 l173 0 6
45 c18 116 -27 255 -106 331 -80 77 -160 104 -303 103 -55 -1 -119 -5 -143
-11z"/>
<path d="M3413 3628 c-6 -7 -14 -42 -17 -78 -4 -36 -13 -94 -21 -130 -8 -36
-26 -128 -40 -205 -15 -77 -35 -180 -45 -230 -10 -49 -28 -148 -40 -220 -21
-126 -40 -227 -75 -405 -26 -130 -36 -201 -29 -211 3 -5 83 -9 179 -9 l174 0
11 40 c22 84 28 117 35 165 3 28 15 89 26 136 23 98 27 102 110 92 l48 -6 6
-56 c4 -31 13 -82 21 -114 8 -31 19 -94 25 -139 16 -127 0 -118 209 -118 206
0 190 -11 166 106 -13 63 -27 136 -87 469 -11 61 -29 155 -39 210 -10 55 -28
150 -39 210 -11 61 -29 157 -40 215 -11 58 -22 123 -26 145 -3 22 -10 64 -16
93 l-10 52 -238 0 c-179 0 -241 -3 -248 -12z"/>
<path d="M4260 3460 l0 -180 99 0 c54 0 113 -3 130 -6 l31 -6 2 -562 3 -561
145 -3 c80 -2 160 0 178 3 l32 6 0 558 0 558 53 7 c28 3 87 6 130 6 l77 0 0
180 0 180 -440 0 -440 0 0 -180z"/>
</g>
</svg>
