<?xml version="1.0" standalone="no"?>
<!DOCTYPE svg PUBLIC "-//W3C//DTD SVG 20010904//EN"
 "http://www.w3.org/TR/2001/REC-SVG-20010904/DTD/svg10.dtd">
<svg version="1.0" xmlns="http://www.w3.org/2000/svg"
 width="800.000000pt" height="600.000000pt" viewBox="0 0 800.000000 600.000000"
 preserveAspectRatio="xMidYMid meet">
<metadata>
Created by potrace 1.16, written by Peter Selinger 2001-2019
</metadata>
<g transform="translate(0.000000,600.000000) scale(0.100000,-0.100000)"
fill="#000000" stroke="none">
<path d="M1570 5765 l0 -135 -495 0 -495 0 0 -2645 0 -2645 3280 0 3280 0 0
2645 0 2645 -520 0 -520 0 0 125 0 125 -205 0 -205 0 0 -125 0 -125 -1855 0
-1855 0 0 135 0 135 -205 0 -205 0 0 -135z m330 -240 l0 -305 -135 0 -135 0 0
305 0 305 135 0 135 0 0 -305z m4130 -20 l0 -305 -135 0 -135 0 0 305 0 305
135 0 135 0 0 -305z m-4460 -200 l0 -175 205 0 205 0 0 175 0 175 1855 0 1855
0 0 -185 0 -185 205 0 205 0 0 185 0 185 430 0 430 0 0 -340 0 -340 -3120 0
-3120 0 0 340 0 340 425 0 425 0 0 -175z m5390 -2785 l0 -2010 -3120 0 -3120
0 0 2010 0 2010 3120 0 3120 0 0 -2010z"/>
<path d="M2632 3638 c-94 -21 -198 -106 -241 -198 -25 -53 -26 -60 -26 -255
l0 -200 29 -53 c45 -81 93 -130 160 -165 53 -27 74 -32 161 -37 l100 -5 3
-107 3 -108 -35 0 c-59 0 -66 7 -66 66 l0 54 -177 -2 -178 -3 0 -121 0 -121
36 -59 c43 -69 113 -127 184 -151 75 -25 317 -20 394 9 67 26 136 92 174 167
27 55 27 56 27 271 0 213 0 216 -26 265 -42 80 -88 129 -154 164 -54 29 -73
34 -168 39 l-107 7 0 90 0 90 48 3 47 3 0 -40 c0 -74 -7 -71 185 -71 l173 0 6
45 c18 116 -27 255 -106 331 -80 77 -160 104 -303 103 -55 -1 -119 -5 -143
-11z"/>
<path d="M3893 3643 l-153 -4 0 -552 c0 -303 -4 -558 -9 -565 -5 -8 -23 -12
-47 -10 l-39 3 -3 563 -2 562 -184 0 -183 0 3 -601 c3 -657 4 -664 62 -745 40
-54 97 -98 163 -124 79 -32 277 -32 370 -1 85 28 167 106 201 189 l23 57 3
611 2 612 -22 6 c-13 3 -25 5 -28 4 -3 -2 -74 -4 -157 -5z"/>
<path d="M4188 2958 c-2 -380 -1 -717 2 -747 l5 -56 175 0 175 0 5 210 5 210
18 -50 c10 -27 25 -65 33 -83 8 -18 28 -70 45 -115 17 -45 38 -102 48 -127
l17 -45 177 -2 177 -2 0 749 0 750 -180 0 -180 0 0 -215 c0 -137 -4 -215 -10
-215 -5 0 -10 7 -10 15 0 8 -9 34 -19 57 -11 24 -32 77 -47 118 -15 41 -35 94
-45 117 -11 24 -19 48 -19 53 0 6 -7 24 -15 40 l-16 30 -168 0 -169 0 -4 -692z"/>
</g>
</svg>
