<?xml version="1.0" encoding="utf-8"?>
<!-- Svg Vector Icons : http://www.onlinewebfonts.com/icon -->
<!DOCTYPE svg PUBLIC "-//W3C//DTD SVG 1.1//EN" "http://www.w3.org/Graphics/SVG/1.1/DTD/svg11.dtd">
<svg version="1.1" xmlns="http://www.w3.org/2000/svg" xmlns:xlink="http://www.w3.org/1999/xlink" x="0px" y="0px" viewBox="0 0 1000 1000" enable-background="new 0 0 1000 1000" xml:space="preserve">
<metadata> Svg Vector Icons : http://www.onlinewebfonts.com/icon </metadata>
<g><path d="M467.7,12C214.9,12,10,216.9,10,469.7c0,252.8,204.9,457.7,457.7,457.7c252.8,0,457.7-204.9,457.7-457.7C925.4,216.9,720.5,12,467.7,12z M467.7,881.6c-227.5,0-411.9-184.4-411.9-411.9S240.2,57.8,467.7,57.8c227.5,0,411.9,184.4,411.9,411.9S695.2,881.6,467.7,881.6z"/><path d="M978.5,977.8c-9.3,11.1-24.9,13.5-34.7,5.2L756.8,826.2c-9.8-8.2-10.2-23.9-0.9-35.1l4.8-5.7c9.3-11.1,24.9-13.5,34.7-5.2l186.9,156.9c9.8,8.2,10.2,23.9,0.9,35.1L978.5,977.8z"/><path d="M167.6,639.4h600.2v42H167.6V639.4z"/><path d="M167.3,375h91.5v249.4h-91.5V375z"/><path d="M336.5,226.4h91.5v397.9h-91.5V226.4L336.5,226.4z"/><path d="M505.7,308.2h91.5v316.1h-91.5V308.2z"/><path d="M674.9,477h91.5v147.3h-91.5V477L674.9,477z"/></g>
</svg>