<?xml version="1.0" encoding="utf-8"?>
<!-- Svg Vector Icons : http://www.onlinewebfonts.com/icon -->
<!DOCTYPE svg PUBLIC "-//W3C//DTD SVG 1.1//EN" "http://www.w3.org/Graphics/SVG/1.1/DTD/svg11.dtd">
<svg version="1.1" xmlns="http://www.w3.org/2000/svg" xmlns:xlink="http://www.w3.org/1999/xlink" x="0px" y="0px" viewBox="0 0 1000 1000" enable-background="new 0 0 1000 1000" xml:space="preserve">
<metadata> Svg Vector Icons : http://www.onlinewebfonts.com/icon </metadata>
<g><path d="M947,545L390.7,10H90.3L51.2,54.4v296.8l535,554.5l62.9-0.2l299.7-298.4L947,545z M127.6,118c-17.7,0-32-14.3-32-32c0-17.7,14.3-32,32-32s32,14.3,32,32C159.6,103.7,145.3,118,127.6,118z"/><path d="M329.8,967.3l45.3,22.7l123.1-81.3L85,454.3L329.8,967.3z"/><path d="M74.1,928l43.8,41.3l128.6-0.2L74.1,499.2V928z"/></g>
</svg>