<?xml version="1.0" standalone="no"?>
<!DOCTYPE svg PUBLIC "-//W3C//DTD SVG 20010904//EN"
 "http://www.w3.org/TR/2001/REC-SVG-20010904/DTD/svg10.dtd">
<svg version="1.0" xmlns="http://www.w3.org/2000/svg"
 width="800.000000pt" height="600.000000pt" viewBox="0 0 800.000000 600.000000"
 preserveAspectRatio="xMidYMid meet">
<metadata>
Created by potrace 1.16, written by Peter Selinger 2001-2019
</metadata>
<g transform="translate(0.000000,600.000000) scale(0.100000,-0.100000)"
fill="#000000" stroke="none">
<path d="M1570 5765 l0 -135 -495 0 -495 0 0 -2645 0 -2645 3280 0 3280 0 0
2645 0 2645 -520 0 -520 0 0 125 0 125 -205 0 -205 0 0 -125 0 -125 -1855 0
-1855 0 0 135 0 135 -205 0 -205 0 0 -135z m330 -240 l0 -305 -135 0 -135 0 0
305 0 305 135 0 135 0 0 -305z m4130 -20 l0 -305 -135 0 -135 0 0 305 0 305
135 0 135 0 0 -305z m-4460 -200 l0 -175 205 0 205 0 0 175 0 175 1855 0 1855
0 0 -185 0 -185 205 0 205 0 0 185 0 185 430 0 430 0 0 -340 0 -340 -3120 0
-3120 0 0 340 0 340 425 0 425 0 0 -175z m5390 -2785 l0 -2010 -3120 0 -3120
0 0 2010 0 2010 3120 0 3120 0 0 -2010z"/>
<path d="M2354 3637 c-2 -7 -3 -87 -2 -177 l3 -165 120 -6 c66 -4 123 -7 128
-8 4 0 7 -245 7 -543 0 -299 3 -553 6 -565 6 -23 9 -23 166 -23 91 0 168 4
179 10 18 10 19 27 19 564 l0 553 53 7 c28 3 87 6 130 6 l77 0 0 180 0 180
-440 0 c-350 0 -442 -3 -446 -13z"/>
<path d="M3330 2905 l0 -745 180 0 180 0 0 288 c0 158 3 297 6 310 6 19 13 22
55 22 l49 0 0 -309 c0 -272 2 -310 16 -315 20 -8 308 -8 328 0 14 6 16 80 16
745 l0 738 -32 6 c-18 3 -98 5 -178 3 l-145 -3 -3 -239 c-1 -156 -6 -244 -13
-253 -6 -7 -29 -13 -50 -13 -30 0 -39 4 -40 18 0 9 0 112 1 228 1 116 -2 223
-6 238 l-6 26 -179 0 -179 0 0 -745z"/>
<path d="M4863 3642 l-153 -3 0 -552 c0 -303 -4 -558 -9 -565 -5 -8 -23 -12
-47 -10 l-39 3 -5 560 -5 560 -182 3 -181 2 0 -562 c0 -319 4 -594 9 -635 13
-89 43 -147 109 -206 78 -70 145 -90 298 -89 168 0 222 19 307 106 47 48 65
75 83 126 22 65 22 68 22 663 0 509 -2 597 -14 597 -8 0 -20 1 -28 3 -7 1 -82
1 -165 -1z"/>
</g>
</svg>
