<?xml version="1.0" standalone="no"?>
<!DOCTYPE svg PUBLIC "-//W3C//DTD SVG 20010904//EN"
 "http://www.w3.org/TR/2001/REC-SVG-20010904/DTD/svg10.dtd">
<svg version="1.0" xmlns="http://www.w3.org/2000/svg"
 width="800.000000pt" height="600.000000pt" viewBox="0 0 800.000000 600.000000"
 preserveAspectRatio="xMidYMid meet">
<metadata>
Created by potrace 1.16, written by Peter Selinger 2001-2019
</metadata>
<g transform="translate(0.000000,600.000000) scale(0.100000,-0.100000)"
fill="#000000" stroke="none">
<path d="M1570 5765 l0 -135 -495 0 -495 0 0 -2645 0 -2645 3280 0 3280 0 0
2645 0 2645 -520 0 -520 0 0 125 0 125 -205 0 -205 0 0 -125 0 -125 -1855 0
-1855 0 0 135 0 135 -205 0 -205 0 0 -135z m330 -240 l0 -305 -135 0 -135 0 0
305 0 305 135 0 135 0 0 -305z m4130 -20 l0 -305 -135 0 -135 0 0 305 0 305
135 0 135 0 0 -305z m-4460 -200 l0 -175 205 0 205 0 0 175 0 175 1855 0 1855
0 0 -185 0 -185 205 0 205 0 0 185 0 185 430 0 430 0 0 -340 0 -340 -3120 0
-3120 0 0 340 0 340 425 0 425 0 0 -175z m5390 -2785 l0 -2010 -3120 0 -3120
0 0 2010 0 2010 3120 0 3120 0 0 -2010z"/>
<path d="M2404 3637 c-2 -7 -3 -87 -2 -177 l3 -165 120 -6 c66 -4 123 -7 128
-8 4 0 7 -245 7 -543 0 -299 3 -553 6 -565 6 -23 9 -23 166 -23 91 0 168 4
179 10 18 10 19 27 19 564 l0 553 53 7 c28 3 87 6 130 6 l77 0 0 180 0 180
-440 0 c-350 0 -442 -3 -446 -13z"/>
<path d="M3993 3643 l-153 -4 0 -552 c0 -303 -4 -558 -9 -565 -5 -8 -23 -12
-47 -10 l-39 3 -5 560 -5 560 -181 3 -181 2 3 -602 c2 -513 5 -611 18 -654 30
-96 105 -174 207 -214 79 -32 277 -32 371 -1 90 30 175 116 206 210 22 64 22
76 22 662 l0 597 -22 6 c-13 3 -25 5 -28 4 -3 -2 -74 -4 -157 -5z"/>
<path d="M4295 3639 c-4 -5 -7 -151 -7 -322 1 -172 1 -504 1 -740 l1 -427 368
2 367 3 0 180 0 180 -187 3 -188 2 0 130 0 130 160 0 160 0 0 186 0 185 -157
-2 -158 -2 -3 67 -3 66 178 0 c98 0 184 4 191 8 9 7 12 50 10 183 l-3 174
-362 3 c-251 1 -364 -1 -368 -9z"/>
</g>
</svg>
