<?xml version="1.0" encoding="utf-8"?>
<!-- Svg Vector Icons : http://www.onlinewebfonts.com/icon -->
<!DOCTYPE svg PUBLIC "-//W3C//DTD SVG 1.1//EN" "http://www.w3.org/Graphics/SVG/1.1/DTD/svg11.dtd">
<svg version="1.1" xmlns="http://www.w3.org/2000/svg" xmlns:xlink="http://www.w3.org/1999/xlink" x="0px" y="0px" viewBox="0 0 1000 1000" enable-background="new 0 0 1000 1000" xml:space="preserve">
<metadata> Svg Vector Icons : http://www.onlinewebfonts.com/icon </metadata>
<g><path d="M500,10C229.8,10,10,229.9,10,500c0,270.1,219.8,490,490,490c270.2,0,490-219.8,490-490C989.9,229.9,770.1,10,500,10z M500,76.4c88.9,0,171.4,27.5,239.5,74.3L151.1,740.3C104,672,76.3,589.2,76.3,500C76.3,266,266,76.4,500,76.4z M500,923.6c-84.7,0-163.6-25-229.9-67.9l585.2-586.4c43.1,66.4,68.3,145.6,68.3,230.7C923.5,734,733.9,923.6,500,923.6z"/></g>
</svg>