<?xml version="1.0" encoding="utf-8"?>
<!-- Svg Vector Icons : http://www.onlinewebfonts.com/icon -->
<!DOCTYPE svg PUBLIC "-//W3C//DTD SVG 1.1//EN" "http://www.w3.org/Graphics/SVG/1.1/DTD/svg11.dtd">
<svg version="1.1" xmlns="http://www.w3.org/2000/svg" xmlns:xlink="http://www.w3.org/1999/xlink" x="0px" y="0px" viewBox="0 0 1000 1000" enable-background="new 0 0 1000 1000" xml:space="preserve">
<metadata> Svg Vector Icons : http://www.onlinewebfonts.com/icon </metadata>
<g><path d="M571.2,800.3h22.1v3.8h-22.1V800.3z"/><path d="M668.3,776.7h5.5v17.7h-5.5V776.7z"/><path d="M414.7,785.7h-17c-0.1,0.1-0.1,0.1-0.2,0.2c2.1,2.7,4.8,5,8.1,6.8C409.4,790.6,412.5,788.3,414.7,785.7z"/><path d="M425.3,776.9h-40.4v41.3h40.4V776.9z M417,816.5c-8.1-1.8-16.9-3.3-26.2-4.6l1.2-3.8c9.2,1.2,18.1,2.6,26.6,4.2L417,816.5z M396.6,804.5l1.1-3.7c5.4,0.8,11.1,1.7,17.1,2.8l-1.2,3.9C407.5,806.2,401.9,805.2,396.6,804.5z M422.3,801.6c-6.5-1.5-12.1-3.2-16.6-5.1c-4.5,2-10.5,4-17.9,5.9c-0.5-1.2-1.1-2.4-1.9-3.5c6.5-1.3,11.8-2.8,16-4.6c-2.6-1.8-4.8-3.8-6.7-6.2c-1.7,1.7-3.7,3.3-5.7,4.9c-0.7-0.8-1.6-1.7-2.7-2.7c5-3.6,9.2-7.9,12.4-12.9l3.6,1.7c-0.7,1-1.4,2-2.2,3h19.5v3.3c-2.7,3.3-6.2,6.2-10.4,8.9c3.9,1.3,8.6,2.3,14.3,3.1C423.3,799.1,422.7,800.5,422.3,801.6z"/><path d="M685.6,776.6h5.5v17.8h-5.5V776.6z"/><path d="M571.2,807.5h22.1v3.8h-22.1V807.5z"/><path d="M500,10C229.4,10,10,229.4,10,500c0,270.6,219.4,490,490,490s490-219.4,490-490C990,229.4,770.6,10,500,10L500,10z M786.8,436.2L477.5,744.2c-22,22-57.8,22-79.8,0L218.1,565.3c-22-22-22-57.5,0-79.5c22-22,57.8-22,79.8,0L437.6,625L707,356.7c22-22,57.8-22,79.8,0C808.8,378.6,808.8,414.2,786.8,436.2L786.8,436.2z"/></g>
</svg>