<?xml version="1.0" encoding="utf-8"?>
<!-- Svg Vector Icons : http://www.onlinewebfonts.com/icon -->
<!DOCTYPE svg PUBLIC "-//W3C//DTD SVG 1.1//EN" "http://www.w3.org/Graphics/SVG/1.1/DTD/svg11.dtd">
<svg version="1.1" xmlns="http://www.w3.org/2000/svg" xmlns:xlink="http://www.w3.org/1999/xlink" x="0px" y="0px" viewBox="0 0 1000 1000" enable-background="new 0 0 1000 1000" xml:space="preserve">
<metadata> Svg Vector Icons : http://www.onlinewebfonts.com/icon </metadata>
<g><path d="M500.1,957.5c-74.2,0-148.4,0-222.6,0c-25,0-49.2-3.8-71.5-15.6c-36.2-19.1-57.1-49.5-63.3-89.8c-4.4-28.6-1.9-57.4,0.3-86c2.6-34.5,8.8-68.5,19.1-101.5c10.1-32.1,24.7-61.9,47.7-86.9c25-27.3,56.7-40.6,93.1-44.4c12.4-1.3,22.9,1.3,33.1,8.3c15.1,10.4,30.4,20.7,46.2,30c28.8,16.9,60.1,27.1,93.3,30.6c59.4,6.3,113.1-9.5,162-42.9c7.9-5.4,16.2-10.1,23.8-15.8c12.3-9.3,25.5-11.8,40.7-9.7c34,4.7,63.7,17.7,87.4,42.9c16.8,17.8,28.8,38.7,38.4,61c13.3,30.8,20.3,63.4,25.4,96.4c5,32.2,6.7,64.6,5.9,97.1c-1.2,47.5-19.9,85.6-62.6,109.5c-22.8,12.8-47.9,16.9-73.8,16.9C648.6,957.6,574.4,957.5,500.1,957.5z"/><path d="M500,173.4c105.8-2.2,196.4,88.7,196.5,195.5c0.1,107.9-90.1,196.2-195,196.9c-106.4,0.7-197.5-87.9-197.7-196.2C303.5,261.3,394.6,171.3,500,173.4z"/><path d="M726.5,336.3c9.5,2.4,18.2,4.9,27,6.8c36,7.9,71.4,5.5,105.6-8.3c18.7-7.6,36.9-16.4,55-25.3c15.6-7.7,30.2-5.5,42.1,7.5c12.4,13.5,18.3,30.1,22.7,47.3c7.4,28.8,9.8,58.3,10.6,87.9c0.4,14.6,0.9,29.3-0.3,43.8c-2.4,28.3-19,46.7-44,58.4c-16.5,7.7-33.9,10.8-52,11c-21.4,0.2-42.9-0.1-64.3,0.2c-4.6,0.1-7.5-1.5-10.4-4.8c-24.2-27.4-53.7-46.4-89.3-54.9c-13.3-3.2-27-4.6-41-6.9C721.5,450.2,734.2,395.9,726.5,336.3z"/><path d="M273.8,335.8c-4.4,29.5-3.1,57.8,3.5,85.9c6.6,28.1,18.5,53.8,34.7,77.4c-12.5,1.9-24.7,3-36.6,5.6c-37.3,8-68.2,27.2-93.4,55.6c-3.1,3.5-6.2,5.3-11.2,5.2c-23.5-0.4-47,0.2-70.4-0.5c-19.8-0.5-38.5-5.8-55.7-16.2c-22-13.3-33.7-33.1-34.4-58.4c-1.1-39.3,0.8-78.6,8.8-117.2c3.6-17.5,8.7-34.6,19.2-49.5c7-9.9,15.9-17.4,28.4-18.9c4.3-0.5,9.2,0.2,13.2,2c20.3,9,40.1,19.4,60.6,27.8c40.8,16.6,82.4,16.7,124.4,4C267.5,337.7,270.1,337,273.8,335.8z"/><path d="M336.6,171c1.9,71.7-57.1,131.5-128,133c-71.8,1.4-131.7-56.8-133.4-127.7c-1.7-71.6,56.7-132.6,128.3-133.9C274.9,41.1,336.4,100.2,336.6,171z"/><path d="M794.1,303.9c-72.3,0-131-58.7-130.6-130.8c0.3-72.7,58.6-130.3,131-130.6c70.6-0.3,130.8,59.6,130.5,130.7C924.6,245.5,866.5,304,794.1,303.9z"/></g>
</svg>