<?xml version="1.0" standalone="no"?>
<!DOCTYPE svg PUBLIC "-//W3C//DTD SVG 20010904//EN"
 "http://www.w3.org/TR/2001/REC-SVG-20010904/DTD/svg10.dtd">
<svg version="1.0" xmlns="http://www.w3.org/2000/svg"
 width="800.000000pt" height="600.000000pt" viewBox="0 0 800.000000 600.000000"
 preserveAspectRatio="xMidYMid meet">
<metadata>
Created by potrace 1.16, written by Peter Selinger 2001-2019
</metadata>
<g transform="translate(0.000000,600.000000) scale(0.100000,-0.100000)"
fill="#000000" stroke="none">
<path d="M1570 5765 l0 -135 -495 0 -495 0 0 -2645 0 -2645 3280 0 3280 0 0
2645 0 2645 -520 0 -520 0 0 125 0 125 -205 0 -205 0 0 -125 0 -125 -1855 0
-1855 0 0 135 0 135 -205 0 -205 0 0 -135z m330 -240 l0 -305 -135 0 -135 0 0
305 0 305 135 0 135 0 0 -305z m4130 -20 l0 -305 -135 0 -135 0 0 305 0 305
135 0 135 0 0 -305z m-4460 -200 l0 -175 205 0 205 0 0 175 0 175 1855 0 1855
0 0 -185 0 -185 205 0 205 0 0 185 0 185 430 0 430 0 0 -340 0 -340 -3120 0
-3120 0 0 340 0 340 425 0 425 0 0 -175z m5390 -2785 l0 -2010 -3120 0 -3120
0 0 2010 0 2010 3120 0 3120 0 0 -2010z"/>
<path d="M3324 3643 l-52 -4 -15 -62 c-9 -34 -36 -165 -62 -292 -25 -126 -48
-231 -50 -234 -8 -7 -22 42 -30 99 -4 30 -15 91 -25 135 -11 44 -29 132 -40
195 -34 178 -10 160 -214 160 l-175 0 -15 -77 c-41 -196 -59 -284 -77 -360
-10 -45 -19 -98 -19 -118 0 -39 -17 -48 -24 -12 -3 12 -15 69 -26 127 -36 180
-60 292 -77 368 l-16 72 -179 0 c-203 0 -197 3 -178 -82 31 -140 62 -290 75
-358 8 -41 28 -140 45 -220 17 -80 37 -179 45 -220 22 -117 102 -499 116 -557
l12 -53 193 0 192 0 7 33 c3 17 15 75 26 127 42 203 59 287 65 325 5 33 8 36
14 20 7 -19 81 -375 95 -457 3 -21 10 -40 15 -43 15 -9 363 -11 377 -2 13 8
19 36 108 487 52 265 75 374 125 605 51 231 59 274 66 333 l7 62 -49 0 c-27 0
-85 2 -129 4 -44 2 -103 2 -131 -1z"/>
<path d="M3725 3641 c-6 -10 -7 -241 -6 -1064 l1 -427 368 2 367 3 0 180 0
180 -187 3 -188 2 0 130 0 130 160 0 160 0 0 186 0 185 -157 -2 -158 -2 -3 67
-3 66 178 0 c98 0 184 4 191 8 9 7 12 50 10 183 l-3 174 -362 3 c-225 1 -364
-1 -368 -7z"/>
<path d="M4552 3638 c-9 -9 -12 -186 -12 -734 0 -397 3 -729 6 -738 5 -14 34
-16 213 -16 296 0 379 25 491 147 81 88 108 155 119 293 9 118 6 596 -4 685
-8 72 -67 188 -124 245 -58 58 -146 104 -226 119 -83 15 -447 15 -463 -1z
m429 -377 l24 -19 3 -314 c4 -341 -1 -382 -44 -398 -57 -22 -54 -42 -54 370
l0 380 24 0 c13 0 34 -9 47 -19z"/>
</g>
</svg>
