<?xml version="1.0" standalone="no"?>
<!DOCTYPE svg PUBLIC "-//W3C//DTD SVG 20010904//EN"
 "http://www.w3.org/TR/2001/REC-SVG-20010904/DTD/svg10.dtd">
<svg version="1.0" xmlns="http://www.w3.org/2000/svg"
 width="512.000000pt" height="512.000000pt" viewBox="0 0 512.000000 512.000000"
 preserveAspectRatio="xMidYMid meet">
<metadata>
Created by potrace 1.16, written by Peter Selinger 2001-2019
</metadata>
<g transform="translate(0.000000,512.000000) scale(0.100000,-0.100000)"
fill="#000000" stroke="none">
<path d="M1890 5092 c-19 -19 -30 -43 -35 -73 -3 -24 -5 -330 -3 -679 3 -686
1 -662 57 -692 35 -19 1347 -19 1382 0 52 27 54 39 57 305 l3 247 670 0 669 0
0 -735 0 -735 -95 0 c-52 0 -95 2 -95 3 0 2 18 48 40 102 47 115 49 135 18
134 -13 0 -201 -89 -418 -197 -306 -153 -396 -202 -398 -217 -2 -17 57 -50
406 -224 225 -112 415 -201 421 -197 18 11 13 37 -23 121 -18 44 -36 90 -40
103 l-7 22 207 0 c203 0 208 1 250 25 28 16 49 39 63 68 21 43 21 49 21 998
l0 954 -23 39 c-12 22 -35 49 -50 60 -28 21 -34 21 -823 24 l-794 2 0 229 c0
126 -3 242 -6 260 -4 17 -18 42 -32 56 l-25 25 -684 0 -685 0 -28 -28z m1110
-717 l0 -395 -400 0 -400 0 0 395 0 395 400 0 400 0 0 -395z"/>
<path d="M1933 3303 c-34 -7 -70 -49 -77 -91 -3 -20 -6 -137 -6 -259 l0 -223
-829 -2 -829 -3 -39 -31 c-78 -63 -73 16 -73 -1051 0 -650 3 -961 11 -980 15
-40 48 -73 94 -94 35 -16 67 -19 238 -19 108 0 197 -2 197 -4 0 -2 -18 -47
-40 -100 -46 -109 -49 -136 -20 -136 11 0 200 90 420 200 301 150 400 204 400
218 0 13 -101 68 -409 221 -224 112 -413 201 -420 197 -18 -11 -13 -36 23
-121 57 -138 62 -125 -48 -125 l-96 0 0 740 0 740 709 0 709 0 4 -247 c3 -266
5 -278 57 -305 36 -20 1347 -19 1383 1 54 28 53 12 53 731 0 531 -3 672 -13
691 -30 56 -3 54 -717 55 -363 1 -670 0 -682 -3z m1067 -743 l0 -400 -400 0
-400 0 0 400 0 400 400 0 400 0 0 -400z"/>
<path d="M1933 1483 c-31 -6 -70 -48 -77 -84 -11 -55 -7 -1281 4 -1321 6 -20
22 -46 37 -58 25 -20 36 -20 708 -20 l682 0 26 26 c16 16 28 42 32 67 3 23 5
330 3 682 -2 528 -5 644 -17 661 -34 51 -11 49 -716 50 -363 1 -670 0 -682 -3z
m1067 -738 l0 -395 -400 0 -400 0 0 395 0 395 400 0 400 0 0 -395z"/>
</g>
</svg>
