<?xml version="1.0" standalone="no"?>
<!DOCTYPE svg PUBLIC "-//W3C//DTD SVG 20010904//EN"
 "http://www.w3.org/TR/2001/REC-SVG-20010904/DTD/svg10.dtd">
<svg version="1.0" xmlns="http://www.w3.org/2000/svg"
 width="2048.000000pt" height="2048.000000pt" viewBox="0 0 2048.000000 2048.000000"
 preserveAspectRatio="xMidYMid meet">

<g transform="translate(0.000000,2048.000000) scale(0.100000,-0.100000)"
fill="#000000" stroke="none">
<path d="M9535 17900 c-306 -15 -595 -46 -925 -100 -177 -29 -229 -38 -330
-61 -47 -11 -88 -20 -180 -40 -217 -48 -679 -186 -940 -281 -413 -152 -869
-369 -1295 -618 -524 -305 -1068 -728 -1535 -1191 -324 -321 -559 -597 -881
-1034 -70 -96 -219 -325 -359 -555 -62 -100 -162 -285 -251 -460 -95 -186
-123 -245 -198 -420 -52 -118 -55 -127 -74 -170 -68 -157 -232 -633 -287 -835
-57 -207 -69 -256 -113 -455 -32 -142 -52 -242 -68 -340 -7 -41 -17 -81 -22
-87 -7 -10 -127 -13 -538 -13 -290 0 -530 -3 -532 -8 -3 -4 11 -34 30 -67 20
-33 59 -100 88 -150 29 -49 92 -157 140 -240 97 -167 107 -184 157 -270 19
-33 75 -127 123 -210 90 -153 200 -342 263 -450 63 -109 69 -119 137 -235 37
-63 79 -135 93 -160 13 -25 44 -76 67 -115 51 -85 122 -207 150 -256 82 -146
181 -309 187 -309 4 0 28 37 54 83 25 45 55 97 65 115 11 17 29 49 40 70 12
20 47 82 79 137 31 55 69 120 82 145 14 25 52 90 83 145 32 55 69 120 83 145
13 25 39 70 57 100 18 30 44 75 57 100 14 25 104 182 200 350 96 168 186 325
200 350 14 25 97 171 185 325 208 363 204 356 219 385 l14 25 -520 3 -520 2 0
23 c0 37 64 335 109 507 50 190 135 473 151 502 6 10 10 25 10 33 0 8 4 23 10
33 5 9 20 49 34 87 32 94 92 248 122 313 13 29 24 55 24 57 0 3 15 38 33 77
19 40 49 107 68 148 219 485 613 1104 978 1540 270 322 710 764 947 950 17 14
65 52 105 85 147 120 329 251 556 401 127 85 234 154 236 154 2 0 46 25 96 55
51 30 94 55 96 55 2 0 26 13 52 28 113 67 457 236 608 299 33 14 76 32 95 40
19 8 44 18 55 23 26 10 64 25 95 38 313 130 809 275 1200 352 516 101 858 133
1405 133 540 0 885 -33 1400 -133 159 -31 498 -113 613 -149 31 -10 104 -33
162 -51 818 -254 1669 -708 2335 -1244 353 -284 745 -665 1000 -971 28 -33 52
-62 55 -65 16 -15 168 -211 242 -310 164 -223 343 -495 444 -676 20 -35 40
-64 45 -64 5 0 44 20 87 44 42 23 98 55 125 70 111 62 148 82 247 139 58 33
117 66 133 74 15 8 27 18 27 22 0 16 -173 297 -304 496 -115 174 -364 516
-439 602 -14 15 -74 87 -134 158 -347 412 -837 873 -1253 1181 -36 26 -90 66
-120 89 -98 73 -398 275 -408 275 -6 0 -12 3 -14 8 -3 8 -100 67 -313 192
-134 78 -570 298 -730 367 -454 198 -853 334 -1295 441 -272 67 -370 87 -585
122 -300 48 -369 56 -740 90 -152 14 -744 20 -950 10z"/>
<path d="M11116 14142 c-2 -4 -14 -69 -26 -143 -11 -73 -30 -190 -41 -259 -25
-160 -36 -227 -49 -320 -7 -41 -13 -84 -16 -96 -2 -14 -17 -25 -46 -34 -245
-75 -397 -137 -605 -249 l-63 -34 -72 51 c-40 29 -134 94 -208 147 -74 52
-191 135 -260 185 -69 49 -135 95 -147 102 -21 10 -34 -1 -185 -158 -89 -93
-237 -245 -328 -339 -91 -93 -216 -222 -279 -286 l-113 -117 237 -353 c130
-195 237 -361 237 -369 0 -8 -24 -67 -54 -130 -81 -169 -98 -208 -98 -223 0
-7 -4 -17 -9 -22 -4 -6 -25 -64 -46 -130 -21 -66 -39 -122 -41 -124 -2 -2 -52
-14 -111 -26 -106 -22 -128 -27 -208 -45 -22 -5 -85 -19 -140 -30 -55 -12
-138 -30 -185 -40 -47 -11 -111 -24 -142 -30 l-58 -11 0 -640 0 -639 26 0 c14
0 44 -4 67 -9 23 -5 78 -15 122 -21 44 -7 118 -18 165 -25 47 -7 150 -23 230
-35 80 -13 167 -28 194 -34 l48 -11 34 -105 c19 -58 38 -113 44 -122 5 -10 10
-22 10 -28 0 -12 22 -62 101 -228 l58 -123 -240 -361 -241 -361 84 -86 c46
-47 156 -160 244 -251 87 -91 227 -235 310 -320 83 -85 171 -176 195 -202 23
-27 47 -48 51 -48 8 0 120 73 143 93 6 5 64 47 130 93 66 47 176 124 243 172
68 48 139 98 157 110 31 22 36 23 62 9 15 -8 63 -33 105 -55 115 -60 318 -144
438 -181 145 -45 159 -51 164 -70 5 -19 30 -136 81 -376 20 -93 40 -190 46
-215 6 -25 15 -65 20 -90 20 -89 31 -125 43 -132 6 -4 288 -8 627 -8 482 0
619 3 626 13 5 6 15 50 22 97 7 47 16 108 21 135 4 28 13 84 20 125 6 41 15
100 20 130 5 30 14 89 20 130 12 78 28 180 36 217 3 16 19 26 66 41 160 51
240 85 430 180 l146 73 84 -59 c45 -32 108 -76 138 -97 30 -22 87 -62 126 -90
40 -27 131 -92 204 -143 72 -51 137 -95 144 -98 11 -4 66 50 470 466 93 96
225 232 293 301 67 69 123 131 123 138 0 7 -19 40 -42 74 -24 34 -45 66 -48
72 -3 5 -88 134 -190 285 -102 151 -187 278 -188 283 -2 4 20 56 48 115 80
163 190 453 190 498 0 20 19 26 240 73 107 23 213 46 235 51 70 16 218 47 280
60 33 6 70 16 83 21 l22 9 0 629 c0 575 -1 629 -16 635 -16 6 -40 10 -211 36
-35 6 -91 14 -125 20 -35 5 -90 13 -123 19 -33 5 -123 19 -200 30 -77 12 -149
23 -161 26 -16 3 -26 25 -49 97 -38 124 -105 288 -166 411 -27 55 -48 106 -45
114 3 7 110 169 237 359 180 269 229 350 222 364 -7 16 -322 344 -720 749
l-151 155 -54 -37 c-83 -57 -260 -183 -551 -390 l-98 -70 -137 70 c-123 62
-186 90 -371 162 -29 12 -60 21 -67 21 -8 0 -22 4 -32 9 -9 5 -25 12 -35 15
-21 7 -16 -12 -67 231 -11 55 -25 118 -30 140 -5 22 -26 117 -45 210 -20 94
-42 195 -49 225 l-13 55 -631 3 c-347 1 -633 -2 -636 -6z m890 -1557 c195 -26
397 -75 509 -125 11 -4 40 -17 65 -26 133 -54 318 -160 453 -262 391 -294 673
-718 795 -1192 19 -73 32 -137 52 -271 13 -85 13 -410 0 -502 -41 -287 -95
-468 -205 -692 -114 -231 -261 -433 -436 -600 -328 -314 -694 -498 -1157 -582
-122 -22 -540 -25 -642 -5 -36 7 -90 18 -120 24 -617 123 -1172 539 -1467
1099 -47 90 -114 244 -138 319 -10 30 -21 64 -25 75 -8 19 -16 54 -39 158 -50
220 -62 452 -37 677 72 639 414 1203 942 1557 122 81 290 171 399 212 33 13
69 27 80 31 93 37 285 82 470 109 98 14 382 12 501 -4z"/>
<path d="M17327 11103 c-43 -76 -64 -112 -108 -190 -12 -21 -83 -146 -159
-278 -76 -132 -147 -257 -159 -277 -11 -21 -29 -53 -40 -70 -10 -18 -73 -130
-141 -248 -67 -118 -131 -231 -142 -250 -12 -19 -32 -55 -45 -78 -25 -45 -360
-630 -396 -692 -11 -19 -39 -69 -62 -110 -23 -41 -56 -99 -74 -128 -17 -29
-31 -60 -31 -68 0 -12 68 -14 516 -14 284 0 518 -1 520 -3 7 -6 -81 -408 -118
-542 -81 -294 -169 -565 -261 -800 -52 -131 -66 -165 -135 -320 -50 -113 -220
-450 -276 -549 -31 -54 -56 -100 -56 -102 0 -3 -106 -176 -165 -269 -428 -677
-995 -1303 -1639 -1809 -558 -438 -1185 -797 -1831 -1047 -71 -28 -139 -54
-150 -59 -108 -46 -486 -161 -725 -220 -442 -109 -759 -160 -1265 -201 -209
-17 -802 -14 -1024 5 -531 46 -880 107 -1376 241 -303 81 -783 254 -1045 377
-196 92 -402 196 -519 263 -74 41 -135 75 -137 75 -12 0 -426 267 -549 355
-253 180 -556 428 -731 598 -45 43 -91 85 -102 93 -34 23 -338 349 -462 494
-199 232 -323 396 -504 663 -70 103 -129 187 -132 187 -5 0 -58 -33 -309 -191
-272 -172 -285 -181 -285 -192 0 -12 142 -232 235 -362 144 -203 329 -438 519
-655 236 -271 710 -723 981 -935 21 -16 61 -48 89 -71 412 -330 1062 -727
1556 -949 58 -26 132 -60 165 -75 33 -15 132 -55 220 -89 88 -35 169 -67 180
-72 57 -23 254 -91 360 -124 66 -20 131 -40 145 -45 151 -49 583 -153 790
-190 36 -6 85 -16 110 -21 62 -12 373 -55 495 -68 732 -78 1404 -59 2135 61
373 61 679 131 965 218 39 12 84 25 100 30 115 30 414 136 625 222 121 49 156
64 268 114 29 13 54 24 57 24 8 0 362 175 450 223 170 93 351 197 428 249 32
21 60 38 63 38 11 0 438 292 454 310 3 3 21 17 40 30 137 95 509 405 690 576
446 420 809 848 1163 1371 64 95 117 175 117 177 0 3 13 24 29 48 27 40 129
212 189 318 102 179 267 511 341 685 5 11 16 36 24 55 69 162 139 334 157 390
5 14 29 84 55 155 55 155 94 280 155 500 37 133 109 437 130 553 6 28 15 78
21 110 5 31 13 75 16 97 3 22 10 46 16 53 7 9 99 12 396 12 466 0 671 8 671
26 0 11 -25 54 -260 454 -57 96 -114 195 -128 220 -14 25 -47 83 -75 130 -27
47 -58 99 -67 115 -10 17 -48 82 -85 145 -71 121 -93 159 -124 213 -10 17 -49
84 -86 147 -37 63 -75 129 -85 145 -10 17 -57 98 -105 180 -48 83 -99 170
-113 195 -14 25 -43 73 -64 108 -21 34 -38 64 -38 66 0 2 -19 34 -41 72 -23
37 -53 87 -66 112 -55 99 -79 136 -90 139 -6 2 -31 -31 -56 -74z"/>
<path d="M5719 11079 c-9 -5 -31 -119 -59 -304 -6 -38 -13 -85 -16 -103 -3
-18 -10 -35 -17 -36 -103 -29 -187 -61 -311 -121 -43 -21 -84 -38 -90 -38 -10
0 -140 90 -305 210 l-65 47 -233 -239 c-129 -132 -238 -247 -243 -256 -7 -12
20 -61 115 -204 68 -104 123 -191 121 -194 -1 -3 -16 -35 -33 -71 -51 -106
-62 -135 -84 -207 -11 -37 -26 -73 -32 -79 -7 -6 -61 -21 -122 -34 -60 -12
-126 -26 -145 -30 -19 -5 -62 -13 -95 -20 -33 -6 -66 -17 -73 -22 -9 -8 -12
-87 -10 -352 l3 -341 59 -12 c32 -6 127 -21 210 -33 83 -12 159 -26 168 -31 9
-5 22 -26 28 -46 18 -58 80 -210 106 -261 13 -25 20 -50 17 -56 -4 -6 -60 -91
-125 -190 -112 -168 -118 -180 -104 -200 8 -11 118 -126 243 -255 l229 -233
88 63 c95 69 189 136 247 175 l37 25 108 -52 c60 -29 118 -56 129 -60 20 -8
150 -49 171 -54 13 -4 24 -42 70 -262 l39 -183 352 0 352 0 6 48 c4 26 10 70
15 97 5 28 14 84 20 125 6 41 16 100 23 130 l12 55 81 27 c44 15 127 50 183
78 56 28 108 47 114 43 7 -4 75 -52 152 -107 77 -55 155 -110 174 -123 l34
-23 236 241 c130 133 239 247 243 254 4 6 -45 90 -117 198 -69 103 -125 189
-125 191 0 2 17 42 38 88 45 96 76 176 93 235 7 24 19 45 28 47 9 3 93 21 186
41 94 19 187 40 208 46 l37 10 0 348 0 348 -57 11 c-61 12 -137 24 -263 42
-137 20 -125 13 -150 93 -22 68 -57 152 -102 242 l-21 41 126 189 c92 140 123
194 116 205 -5 8 -114 123 -243 254 l-234 240 -84 -60 c-170 -123 -250 -179
-271 -191 -18 -10 -30 -7 -82 21 -68 36 -154 72 -275 115 l-45 16 -17 85 c-10
47 -22 103 -27 125 -5 22 -16 78 -25 125 -10 47 -20 91 -24 98 -5 10 -80 13
-345 15 -187 1 -343 -1 -348 -4z m536 -834 c385 -63 734 -324 894 -669 91
-197 114 -301 114 -526 0 -170 -3 -190 -41 -340 -30 -116 -122 -291 -223 -421
-122 -157 -349 -318 -540 -382 -152 -51 -210 -60 -389 -61 -191 -1 -258 9
-420 66 -375 131 -675 466 -768 858 -26 108 -32 159 -32 280 0 150 15 244 62
385 59 174 159 336 293 470 183 182 406 298 653 340 106 18 289 18 397 0z"/>
</g>
</svg>
